<?xml version="1.0" encoding="UTF-8"?>
<!DOCTYPE svg PUBLIC "-//W3C//DTD SVG 1.1//EN" "http://www.w3.org/Graphics/SVG/1.1/DTD/svg11.dtd">
<!-- Creator: CorelDRAW -->
<svg xmlns="http://www.w3.org/2000/svg" xml:space="preserve" width="210mm" height="297mm" version="1.1" style="shape-rendering:geometricPrecision; text-rendering:geometricPrecision; image-rendering:optimizeQuality; fill-rule:evenodd; clip-rule:evenodd"
viewBox="0 0 21000 29700"
 xmlns:xlink="http://www.w3.org/1999/xlink">
 <defs>
  <style type="text/css">
   <![CDATA[
    .str1 {stroke:black;stroke-width:10;stroke-miterlimit:3.864;stroke-opacity:0.501961}
    .str3 {stroke:black;stroke-width:50;stroke-miterlimit:22.9256}
    .str5 {stroke:#434242;stroke-width:10;stroke-miterlimit:22.9256}
    .str2 {stroke:#3F3E3F;stroke-width:10;stroke-miterlimit:3.864}
    .str0 {stroke:black;stroke-width:35;stroke-miterlimit:22.9256}
    .str6 {stroke:#2B2A29;stroke-width:30;stroke-miterlimit:22.9256}
    .str4 {stroke:black;stroke-width:7.62;stroke-miterlimit:22.9256}
    .fil7 {fill:none}
    .fil2 {fill:#FEFEFE}
    .fil1 {fill:#EBECEC}
    .fil10 {fill:#D9DADA}
    .fil0 {fill:#A2D9F7}
    .fil6 {fill:#FEFEFE;fill-rule:nonzero}
    .fil5 {fill:#D9DADA;fill-rule:nonzero}
    .fil9 {fill:#434242;fill-rule:nonzero}
    .fil4 {fill:#2B2A29;fill-rule:nonzero}
    .fil8 {fill:black;fill-rule:nonzero}
    .fil3 {fill:#FEFEFE;fill-rule:nonzero;fill-opacity:0.501961}
    .filSel {fill:#f9c041}
    .strW {stroke:#EBECEC;stroke-width:500;stroke-miterlimit:22.9256}

   ]]>
  </style>
 </defs>
 <g id="Plan_x0020_1">
  <metadata id="CorelCorpID_0Corel-Layer"/>
  <rect class="fil0" x="999.99" y="1000" width="18995.19" height="20395"/>
  <path class="fil1 str0" d="M3903.15 3370.17c-22.67,5.04 -1.83,-84.11 -6.71,-109.83 -6.84,-36.02 -4.97,-131.7 56.01,-119.96 32.61,0 130.47,9.91 84.61,-53.71 -16.32,-22.63 46.73,-57.24 66.73,-73.41 9.92,-8.03 29.1,-51.32 33.96,-51.32 12.55,0 53.66,78.07 66.73,51.92 8.46,-16.93 -25.62,-82.09 -25.62,-105.03 4.31,-0.86 8.68,-4.78 13.11,-4.78 8.03,24.11 33.09,54.21 48.26,78.18l50.65 79.97c19,30.02 77.8,125.33 115.59,125.33 0.38,-1.15 0.22,-0.05 0.6,-1.2 2.9,-0.71 0.54,-10.16 -1.2,-10.74 0,-1.16 -0.35,-1.38 -0.59,-2.39 -1.32,-0.42 -0.69,-1.97 -2.39,-2.38 -0.24,-0.99 -1.07,-2.15 -1.78,-2.39 -0.34,-1.36 -0.87,-0.8 -1.19,-1.79 -1.35,-0.33 -0.82,-0.88 -1.79,-1.19 -0.27,-1.09 -0.1,-0.93 -1.19,-1.2 -0.29,-1.14 -0.65,-1.5 -1.79,-1.79l-99.5 -117.57c-41.96,-49.57 -65.39,-100.3 -82.82,-162.32 -9.94,-35.41 14.29,-54.89 43.97,-66.25 72.5,-45.39 119.17,-108.95 197.82,-152.77 25.81,-14.37 47.09,-40.72 70.31,-59.68l251.44 -205.3c54.93,-44.85 101.63,-52.13 146.58,-116.97 11.65,-16.8 48.95,12.53 79.84,-14.32 26.08,-22.66 94.25,-45.34 103.68,-57.29 15.73,-19.96 25.02,-89.99 52.43,-99.07 6.38,-32.33 87.23,-64.03 92.95,-87.13 3.52,-0.88 4.83,-5.1 8.34,-5.97 0.4,-1.63 5.18,-6.68 7.15,-7.16 1.61,-6.55 19.87,-24.96 23.84,-31.04 27.86,-27.86 79.38,-22 88.18,-37 36.77,-62.62 22.25,12.4 54.82,-20.29 19.64,-19.7 5.2,-53.02 15.49,-66.84 3.31,10.1 54.74,17.42 57.2,-9.55 3.94,-43.06 -17.89,-19.54 13.11,-62.06 22.47,-30.83 115.53,-78.4 121.55,-94.3 52.8,-139.22 151.08,-88.79 218.08,-198.13 19.72,-32.17 59.59,-25.06 82.22,-40.58 74.22,-50.89 158.82,-155.51 206.16,-232.75 20.2,-32.97 103.96,-68.23 137.05,-97.87 28.75,-25.77 42.75,-115.41 94.14,-120.25l-5379.17 0 0 15123.62 0 0 2282.06 2.61 181.07 -8.65 792.47 1.2 1849.46 10.74 588.73 0 0.03 0.11c-12.51,-35.64 -30.9,-68.94 -40.57,-106.34 -2.67,-10.33 -2.36,-17.83 -7.15,-27.45 -3.61,-7.23 -11.38,-16.11 -11.91,-23.87 -1.26,-18.39 2.23,-34.5 7.15,-50.13 4.1,-13.06 15.46,-36.54 19.06,-50.14 6.11,-23.11 1.89,-34.6 -4.76,-57.29l-22.8 -56.51c0,-19.34 -11.11,-36.37 -12.16,-56.06 -1.44,-27.13 -3.65,-53.95 -3.65,-81.65 0,-75.77 -27.03,-134.06 -56.79,-200.51 1.61,-20.01 3.23,-40.02 4.83,-60.02 0.71,-8.87 -8.4,-70.34 2.38,-75.2 2.32,-1.05 1.5,-1.51 2.39,-3.58 2.73,-6.27 11.98,-19.15 16.68,-23.87 4.9,-4.91 11.56,-20.5 11.92,-27.45 0.98,-18.94 -1.19,-40.83 -1.19,-62.07 0,-12.92 10.17,-28.11 14.3,-41.77 11.05,-36.59 18.04,-69.79 -11.92,-95.49 -40.05,-34.37 -59.86,-49 -39.33,-107.42 3.56,-10.15 18.04,-63.11 2.39,-72.81 -13.23,-8.19 -31.56,-23.27 -44.1,-35.81 -15.2,-15.2 -28.53,-32.74 -41.7,-48.93 -6.69,-8.24 -14.77,-26.14 -19.07,-34.62 -6.03,-11.91 -8.17,-28.99 -13.08,-41.69l-16.09 -54.55c-8.16,-6.91 -16.31,-13.83 -24.46,-20.73 -15.55,-13.17 -45.53,-34.87 -52.43,-58.48 -3.24,-11.07 -20.45,-39.6 -28.6,-52.52 -11.58,-18.38 -20.58,-43.92 -30.98,-64.46 -25.31,-50 -74.05,-98.1 -121.56,-125.32 -91.67,-52.53 -116.87,-130.29 -215.69,-182.62 -104.78,-55.48 -248.3,-45.69 -337.24,-108.61 -158.75,-112.29 -244.66,-323.1 -427.82,-387.92 -81.32,-28.78 -283.04,-162.07 -321.75,-247.07 -4.34,-9.53 -28.9,-26.84 -36.94,-37 -21.54,-27.19 -57.61,-73.65 -54.82,-111 1.98,-26.44 18.37,-48.71 20.26,-74.01 7.62,-101.61 -133.78,-123.84 -119.17,-214.84 8.18,-50.96 13.11,-68.8 -16.68,-100.26 -11.73,-12.38 -44.18,-33.65 -57.2,-45.36 -17.63,-15.87 -20.54,-66.55 -40.52,-78.77 -25.13,-15.38 -58.06,-22.95 -83.42,-38.2 -60.06,-36.11 -100.84,-59.3 -148.96,-107.42 -28.12,-28.12 -59.18,-7.81 -92.95,-40.58 -8.74,-8.47 -47.2,-7.35 -57.2,-11.94 -11.89,-5.47 -7.02,-3.59 -22.64,4.78l-24.1 -13.97c-47.69,-15.98 -93.73,-46.73 -142.89,-64.59 -16.07,-5.83 -32.51,-16.02 -48.64,-19.49 -33.54,0 -106.29,-55.82 -139.25,-71.91 -38.09,-18.61 -113.09,-61.98 -137.41,-93.83 -50.38,-66.01 -72.79,-143.56 -81.48,-226.06l-0.61 -0.61c-12.62,-51.34 -121.75,-86.64 -165.99,-98.1 -86.63,-22.43 -182.18,-45.83 -272.48,-41.74 -18.3,3.21 -36.6,6.43 -54.89,9.64 -59.62,10.47 -110.04,-27.24 -171.6,-8.36 -82.48,25.29 -36.55,-66.78 -61.97,-105.03 -28.3,-42.56 -48.33,-48.92 -116.79,-62.07 -49.3,-9.46 -25.97,-93.15 -51.24,-120.55 -66.63,-72.21 -144.09,-182.31 -226.42,-235.14 -66.34,-42.56 -132.69,-85.15 -199.01,-127.71 -20.58,-13.2 -55.52,-32.39 -94.23,-51.23 8.06,-57.73 17.49,-99.79 34.61,-146.91 3.19,-8.79 9.95,1.35 16.68,-7.16 10.48,-13.23 58.69,-150.86 61.97,-157.55 8.7,-17.78 6.19,-36.81 16.68,-59.68 8.33,-18.14 -19.97,-94.7 11.92,-112.19 10.12,-5.54 17.74,-25.01 7.15,-33.43 -19.97,-15.9 -53.47,-74.28 -50.05,-97.87 0.54,-3.79 5.29,-14.26 9.53,-16.71 12.17,-7.01 46.81,-29.73 50.05,-45.35 14.36,-69.17 -8.52,-136.61 -19.06,-202.91 -2.37,-14.97 -26.18,-138.28 -14.3,-155.17 7.45,-10.61 15.04,-85.53 -2.39,-97.87 -13.47,-9.55 13.02,-8.33 -2.38,-14.33 -37.54,-14.65 -131.31,-131.47 -109.63,-179.03 9.51,-20.85 156.97,-123.69 164.45,-143.23 22.87,-59.66 27.24,-166.88 9.53,-224.4 -3.24,-10.52 -62.75,-60.31 -64.35,-71.61 -8.63,-60.95 20.71,-65.17 35.79,-114.58 24.52,-80.37 -29.53,-136.93 -40.52,-208.88 -14.6,-95.65 21.03,-108.48 69.12,-152.78 28.47,-26.24 105.94,-106.1 119.17,-139.65 15.41,-39.11 -3.46,-82.55 19.06,-119.36 15.09,-24.65 30.2,-49.33 45.29,-74 24.77,-40.47 59.99,-33.47 69.12,-93.1 7.21,-47.04 -3.13,-102.33 -1.2,-148 2.25,-53.08 -88.03,-96.68 -113.21,-144.42 -55.29,-104.85 -84.6,-120.25 -84.6,-243.49 0,-41.04 -142.4,-117.15 -195.44,-115.78 -46.07,1.18 -92.15,2.4 -138.23,3.58 -43.71,1.12 -94.74,5.27 -120.36,-22.68 -52.3,-57.03 11.26,-158.34 0,-235.13 -15.05,-102.7 -4.87,-187.9 15.49,-284.08 10.68,-50.43 28.52,-91.53 79.84,-114.58 64.7,-29.07 149.56,-72.08 190.67,-131.29 34.52,-49.7 16.27,-114.61 64.35,-179.04 63.48,-85.09 -54.64,-87.39 40.52,-168.3 48.23,-41.02 29.57,-106.57 60.77,-156.35 21.86,-34.9 65.81,-61.07 100.1,-78.78 26.43,-13.66 49.75,-56.07 66.74,-76.39 23.83,-28.48 20.26,-19.1 47.66,-19.1 12.25,0 27.29,-41.77 70.31,-41.77 21.9,0 119.59,-42.63 133.47,-50.13 24.68,-13.35 51.83,-1.77 64.35,-22.68 30.54,-50.97 48.88,-124.13 113.21,-124.13 36.9,0 83.98,58.35 125.13,35.8 40.48,-22.17 40.56,-77.63 58.39,-118.16 26.72,-60.7 84.45,-148.6 160.88,-112.2 60.41,28.78 84.82,74.96 150.15,-5.96 5.44,-6.75 22.87,-15.48 30.95,-17.91 3.93,-1.19 7.78,-3.02 11.58,-5.52 2.37,-40.55 4.99,-81.37 27.31,-103.69 1.36,-10.81 28.95,-39.37 36.94,-48.34 11.76,-13.22 17.16,-27.83 27.41,-40.58 0,-28.85 -8.65,-44.48 -11.92,-70.42 -12.45,-12.51 -27.4,-42.89 -27.4,-60.28 23.99,-30.29 43.38,-13.7 70.9,-31.59l0 -2223.08c10.86,5.38 17.43,16.77 28,22.68 12.89,7.22 22.64,17.1 34.56,24.46 10.27,6.33 20.73,12.49 32.18,16.12 30.47,9.66 80,28.1 107.24,2.98 9.3,-8.58 28.6,-25.68 28.6,-39.39 1.4,-1.38 1.79,-2.82 1.79,-4.77 2.64,-2.66 0.98,-0.94 2.98,-7.76l6.71 -23.25 0 0z"/>
  <path class="fil1 str0" d="M8336.44 19991.48c-24.12,39.64 -53.92,65.62 -38.66,117.43 5.94,20.15 24.19,41.16 44.09,47.75 34.86,11.56 71.91,51.43 114.4,57.29 42.54,5.86 72.16,20.9 88.19,48.94 49.02,85.79 58.64,81.99 137.04,133.68 95.73,63.11 183.55,174.77 243.1,270.94 28.55,46.09 14.43,113.75 4.77,163.52 -12.49,64.38 27.44,107.49 33.37,162.33 1.01,9.42 8.43,9.41 13.1,15.51 2.65,3.45 6.28,6.18 8.35,9.55 45.12,73.62 165.15,134.84 237.14,168.3 30.53,14.19 46.79,27.9 73.88,47.74 69.47,50.91 202.83,32.19 256.21,113.39 10.31,15.7 20.43,31.43 30.76,47.15l0 0 6992.99 0 -57.2 -76.99c-16.53,-44.31 -53.33,-84 -75.07,-127.71 -21.68,-43.56 -39.72,-90.05 -53.63,-137.26 -19.09,-64.83 -77.49,-201.09 -33.37,-264.98 9.24,-13.37 -8.62,-42.14 -10.72,-54.9 -6.78,-41 19.07,-97.78 19.07,-139.65 1.93,-0.65 15.06,-11.61 15.49,-11.94 2.66,-2.66 3.1,-3.34 3.57,-7.16 9.94,-7.08 48.86,-94.01 48.86,-106.23 20.47,-14.6 -1.19,-171.82 -1.19,-204.1 0,-84.02 11.33,-132.65 -14.3,-216.04 -1.78,-5.81 -3.31,-11.48 -4.62,-17.02l0 0 -4217.61 21.2 -3858.01 -60.74 0 0z"/>
  <path class="fil1 str0" d="M6693.83 16129.63c7.61,21.68 13.06,44.23 13.06,69.12 0,49.19 -45.28,72.52 -45.28,119.35 0,42.5 37.56,66.12 59.58,96.68 38.61,53.6 52.84,119.06 25.02,179.04 -24.52,52.85 -41.8,86.57 2.39,127.71 22.54,20.97 95.31,32.47 121.55,52.52 36.59,27.94 86.91,38.15 120.36,72.81 15.8,16.36 31.6,32.75 47.41,49.13 1.64,1.52 1.63,2.4 3.6,1.35 41.49,30.31 58.06,82.46 58.06,133.44 -1.12,21.02 -2,36.59 -11.31,56.06 -12.87,26.88 -19.81,53.71 -31.62,79.21 -12.3,26.59 -22.84,55.27 -31.58,83.05 -49.81,33.81 -56.04,109.1 -77.46,164.71 -29.8,77.32 -64.62,78.83 -113.21,134.87 -20.81,23.99 -23.29,67.04 -28.6,103.85 -8.61,59.71 7.99,151.17 13.11,211.26 2.77,32.62 5.57,65.24 8.34,97.87 2.21,25.93 12.4,51.21 22.64,72.81 7.44,15.72 23.12,108.48 26.22,127.72 1.98,12.33 3.98,24.67 5.96,37 1.78,11.07 22.71,22.88 23.83,31.03 5.84,42.55 2.3,193.4 25.02,238.72 0.79,1.59 1.6,3.19 2.39,4.77 31.91,63.71 97.09,138.13 112.02,201.71 4.45,18.93 32.17,283.94 32.17,318.69 0,80.77 23.59,97.72 85.8,140.84 22.35,15.48 45.01,48.94 73.89,48.94 25.36,0 58.16,-1.09 79.84,14.32 13.65,9.69 52.04,45.4 59.58,59.68 4.43,8.38 16.3,17.97 26.22,23.87 18.33,10.92 37.15,32.24 58.39,37 34.2,7.66 71.28,-4.48 97.72,17.91 24.49,20.74 60.1,43.45 94.14,42.97 23.98,-0.33 47.97,-0.68 71.96,-1.02l131.54 20.62c34.16,5.34 67.81,15.51 102.15,18.89 34.76,8.91 102.61,20.87 129.77,40.82 50.82,37.31 81.47,71.22 115.53,120.65 21.73,31.52 22.17,79.07 43.78,106.02 10,31.75 32.61,59.7 46.86,89.88 9.19,19.45 21.87,37.37 27.06,58.5l2.27 13.52c36.73,27.6 41.69,87.22 21.45,127.71 -2.83,5.71 -5.88,11.09 -9.01,16.25l0 0c-24.12,39.64 -53.92,65.62 -38.66,117.43 5.94,20.15 24.19,41.16 44.09,47.75 34.86,11.56 71.91,51.43 114.4,57.29 42.54,5.86 72.16,20.9 88.19,48.94 49.02,85.79 58.64,81.99 137.04,133.68 95.73,63.11 183.55,174.77 243.1,270.94 28.55,46.09 14.43,113.75 4.77,163.52 -12.49,64.38 27.44,107.49 33.37,162.33 1.01,9.42 8.43,9.41 13.1,15.51 2.65,3.45 6.28,6.18 8.35,9.55 45.12,73.62 165.15,134.84 237.14,168.3 30.53,14.19 46.79,27.9 73.88,47.74 69.47,50.91 202.83,32.19 256.21,113.39 10.31,15.7 20.43,31.43 30.76,47.15l0 0 -8582.17 0 0 -5271.38 0 0 2282.06 2.61 181.07 -8.65 792.47 1.2 1849.46 10.74 588.73 0 0.03 0.11z"/>
  <path class="fil1 str0" d="M19995.19 6779.61c-8.2,6.51 -15.19,16.09 -22.72,21.48 0,27.2 12.25,80.58 -22.05,92.5 -25.18,8.74 -61.15,33.38 -54.81,64.46 4.6,22.51 38.58,45.23 53.03,63.26 13.81,17.25 4.1,50.57 -17.28,26.26 -40.56,-46.1 -44.44,-10.4 -84.01,-17.91 -19.48,-3.7 -74.75,-45.8 -92.95,-27.45 0,27.92 -0.2,23.24 -14.3,48.94 -13.89,25.29 25.35,27.8 38.73,41.18l0 2.38c-14.12,14.12 -29.4,17.25 -33.37,39.39 -5.74,32.04 -26.24,36.95 -50.05,51.92 -29.03,18.24 -34.66,32.36 -48.26,63.26 -5.45,17.47 -5.41,23.84 4.76,39.39 11.37,17.37 -14.09,75.99 -33.96,81.76 -57.44,16.67 -106.65,-22.8 -106.65,72.21 0,25.66 12.49,46.37 13.7,71.02 0.45,9.34 -3.88,31.54 8.34,33.42 17.32,2.68 20.61,-20.89 32.77,-20.89 17.92,22.26 10.15,57.88 36.95,84.75 16.76,16.82 48.32,37.84 69.71,48.93 34.45,17.88 69.37,9.41 98.31,32.83 31.21,25.24 27.53,73.31 74.48,34.01l0.59 -5.37c-35.17,-35.17 -99.29,-290.86 -12.51,-252.44 10.32,4.56 66.67,30.34 65.54,4.18 -0.78,-18.01 -19.3,-41.04 -5.36,-57.29 22.23,-25.89 14.92,-31.13 12.51,-63.26 -2.74,-36.64 8.72,-42.34 17.88,-69.83 12.42,0 26.84,11.34 42.9,11.34l28.08 -6.56 0 -507.87zm-384.39 982.91c4.53,-3.55 7.59,-8.63 11.92,-12.53 16.67,-14.97 25.81,-19.55 4.77,-36.41 -8.9,-7.12 -14.44,-17.85 -19.07,-28.05 -3.49,-7.67 -9.04,-12.97 -13.71,-19.09 -4.22,0 -6.81,3.07 -10.12,5.37 -11.58,8.02 -58.35,15.13 -45.88,37.6 5.87,10.6 15,16.44 22.64,25.06 3.98,4.48 7.12,8.93 11.32,13.13 4.7,4.7 11.55,10.97 13.11,17.31l25.02 -2.39zm125.13 66.84c-16.54,-1.04 -27.93,-25.44 -44.69,-21.48 -8.28,1.96 -33.11,10.57 -35.16,20.29 -2.39,11.38 7.2,22.47 13.11,31.03 12.65,18.33 16.6,45.18 27.41,65.05 6.88,12.67 7.08,30.35 11.32,44.16 9.82,31.9 61.16,3.62 67.93,-18.5 2.25,-7.35 1.45,-14.45 1.78,-22.08 0.53,-12.31 6.56,-23.73 6.56,-36.4 0,-11.54 -1.57,-17.91 -2.98,-28.05 -6.71,-4.8 -17.07,-7.51 -22.64,-13.13l-22.64 -20.89zm-53.63 222.6c0,-3.91 0.4,-7.59 0.6,-11.34 0.45,-8.55 1.52,-18.91 -5.96,-25.06 -8.53,-7.03 -30.41,-7.25 -36.35,3.58 -1.41,2.59 -1.24,15.93 -0.59,19.1 0.71,3.41 2.15,6.79 2.98,10.14 0.84,3.42 3.23,6.04 3.57,9.55 3.41,3.41 3.3,8.1 5.96,11.94 3.91,5.66 10.66,4.17 16.68,4.17l13.11 -22.08zm-278.25 117.57c0,-17.64 -2.76,-48 -19.66,-54.9 -13.58,-5.55 -53.65,-22.64 -66.74,-9.55 0,20.9 4.93,42.63 1.79,63.85 -3.02,20.46 2.77,26.51 17.88,37.01 9.57,6.66 21.17,10.18 28.6,19.69 10.17,13.04 20.97,26.19 39.32,15.52 16.57,-9.62 -1.79,-37.94 -1.79,-53.12l0.6 -18.5zm355.11 -4274.21c-21.25,-24.88 -38.51,-81.16 -76.26,-81.16 -39.89,0 -75.05,-8.32 -109.04,13.13 -32.24,20.36 -41.08,26.31 -29.79,59.08 18.07,52.48 -25.66,151.96 47.07,168.29 32.86,7.37 -2.98,74.57 -2.98,101.46 0,17.35 -0.56,64.98 10.73,78.18 20.21,23.6 41.55,22.04 64.34,3.58 32.42,-26.24 1.58,-45.5 54.23,-56.1 47.25,-9.52 5.13,26.84 -16.09,32.23l0 2.38c25.22,17.19 10.3,36.92 50.64,24.47 80.48,-24.86 63.19,-49.71 72.69,-115.18 1.9,-13.11 4.02,-35.47 -7.15,-45.35 -5.68,-5.01 -20.68,26.47 -23.23,30.43 -40.88,63.56 -103.87,5.48 -63.16,-48.94 28.88,-38.59 34.56,-98.55 34.56,-146.21l-6.56 -20.29zm-10753.63 -116.39l-0.73 24.19c-0.82,5.94 -2.41,30.63 5.03,32.52 25.12,58.34 122.65,117.65 176.37,55.5 27.29,-31.56 30.92,-44.87 72.09,-20.88 23.68,13.79 49.63,25.75 51.84,56.69 1.81,25.23 -7.48,52.28 -3.57,76.39 5.86,36.04 42.64,3.94 57.79,-6.57 45.39,-31.47 65.33,19.86 100.7,37.6 67.65,33.92 110.43,17.8 137.63,101.46 7.81,24.02 42.22,40.11 43.5,68.03 1.37,30.04 27.19,48.24 30.98,79.37 -2.92,10.08 3.39,29.72 13.11,34.62 6.15,15.44 35.68,55.52 47.07,68.03 10.77,11.81 27.3,73.17 29.2,88.33 17.14,12.19 31.61,54.32 48.85,70.42 33.47,31.28 42.9,64.48 42.9,108.02 0,18.97 -12.99,83.96 4.17,93.69l2920.81 806.86 754.54 468.19c7.77,-0.86 14.35,-1.29 20.05,-1.5 33.68,-1.23 101.02,20.5 140.62,-7.16 47.82,-33.42 41.91,52 88.18,62.07 35.58,7.75 80.61,0 121.55,0 108.94,0 78.63,119.36 171.61,119.36 62.84,0 69.15,-106.1 107.25,-150.4 32.78,-38.1 68.74,64.08 140.62,52.52 43.22,-6.95 95.24,-69.47 126.32,-14.32 102.24,181.36 127.1,-35.98 209.73,88.32 54.9,82.57 91.42,56.78 135.85,21.49 40.19,-31.91 122.52,78.78 143.01,78.78 14.06,0 25.48,3.08 38.13,11.93 16.15,11.28 122.67,50.62 145.39,0 2.51,-5.6 11.51,-22.19 16.68,-21.48 8.73,1.19 17.47,2.39 26.19,3.58 159.61,21.81 168.19,12.75 246.68,82.35 75.37,66.85 202.08,111.48 169.22,223.2 -17.53,59.61 59.73,144.16 16.68,194.56 -22.55,26.4 -81.02,51.26 -91.76,74 -33.09,70.06 165.19,210.67 234.76,183.81 72.08,-27.84 103.78,-99.01 168.03,-48.94 63.15,49.22 23.61,143.23 131.09,143.23 68.22,0 159.12,-10.59 210.92,31.04 29.9,24.02 24.29,64.89 39.33,100.26 24.03,56.54 77.71,11.29 110.82,39.39 24.94,21.15 6.37,55.6 28.6,77.58 21.09,20.85 50.24,51.54 39.33,78.77 -7.43,18.53 -78.17,41.23 -88.18,59.68 -50.82,93.68 77.24,146.06 106.05,220.82 15.5,40.25 -32.65,223.2 -73.88,165.9 -2.06,-2.87 -17.89,-6.73 -20.26,-7.16 -8.29,-1.54 -19.91,-3.13 -23.83,2.39 -29.07,41.02 25.76,96.38 29.79,142.04 4.94,56.07 35.75,105.09 35.75,163.52 0,66.33 -64.23,75.4 -92.95,124.13 -19.66,33.35 -90.13,60.62 -95.33,89.52 -8.18,45.44 45.26,88.14 34.55,139.65 -12.01,57.82 -61.19,95.42 -79.84,152.77 -22.46,69.1 11.98,44.89 57.2,60.88 47.43,16.78 77.62,44.45 132.28,16.71 57.7,-29.29 94.22,0 148.96,0 46.49,0 102.52,-105.07 133.47,-138.46 56.63,-61.12 87.97,-11.29 137.04,45.36 20.24,23.36 68.73,118.27 44.09,142.03 -31.27,30.16 -56.36,111.93 -101.29,137.27 -44.34,25.02 -79.84,128.01 -79.84,181.42 0,65.57 -39.63,92.86 -23.84,152.78 11.69,44.4 -26.59,61.06 -52.43,78.77 -31.63,21.69 22.72,105.44 30.98,124.14 26.94,61.01 105.27,77.09 133.47,122.93 8.06,13.09 34.4,77.9 41.71,89.52 3.59,5.69 21.28,28.15 29.79,33.42 13.52,8.38 28.63,13.44 45.28,16.71 46.07,9.05 92.25,18.29 138.32,27.35l0 0c-10.11,-19.49 -22.3,-39.63 -33.45,-48.83 -51.15,-42.18 33.37,-116.53 33.37,-163.52 18.71,-4.63 59.17,-123.58 103.68,-148.01 32.14,-17.65 144.3,-159.72 151.34,-190.97l110.82 -151.58c18.01,-24.64 85.88,-85.01 89.38,-109.81 3.16,-0.79 -0.48,-101.86 42.9,-113.39 55.19,-14.66 -0.32,-83.64 66.73,-100.26 0,-37.2 -0.56,-79.34 40.52,-89.52 11.57,-46.67 58.01,-79.24 71.5,-133.68 3.17,-0.8 3.92,-4.1 5.96,-4.78 1.29,-5.22 30.39,-19.98 35.75,-23.87 12.31,-8.91 20.07,-31.55 28.6,-35.81 0,-33.63 5.23,-46.85 -3.57,-82.35 -10.88,-2.73 11.47,-52.13 14.3,-58.49 7.13,-16.05 38.2,-40.76 40.51,-47.74 6.68,-1.31 11.68,-4.44 17.88,-5.97l1.19 -1.19 2.38 -34.62c15.78,-41.73 44.5,-113.14 66.74,-149.19 37.36,-60.59 36.69,-90.03 52.43,-156.36 8.72,-36.72 47.55,-51.35 64.35,-78.78 10.04,-16.38 11.73,-34.59 20.26,-52.52l85.8 -180.23c11.49,-24.15 45.43,-50.48 51.24,-68.03 2.04,-0.51 9.16,-2.42 9.54,-3.58 13.08,0 21.15,8.35 32.17,8.35l1.19 -1.19c0,-7.2 -1.98,-53.44 2.39,-54.91 0,-7.27 8.08,-10.82 9.53,-16.71 3.76,-0.93 2.69,-3.96 5.96,-4.77 7.3,-29.47 140.9,-91.91 175.18,-91.91 0.69,-2.08 1.03,-1.96 3.57,-2.38 3.85,-15.6 9.53,-27.57 9.53,-46.55 2.6,-0.86 1.41,-3.94 4.77,-4.78 0.64,-1.94 1.74,-1.63 2.38,-3.58 7.69,0 29.2,-9.16 36.95,-13.13 5.74,-2.95 45.87,-12.49 46.47,-14.32 4.89,0 5.61,-2.61 9.54,-3.58 0.6,-2.42 2.34,-4.17 4.76,-4.78 0,-2.43 0.83,-5.29 -1.19,-5.96 0,-7.65 -19,-10.75 -25.02,-10.75 -0.49,-1.46 -0.92,-1.9 -2.39,-2.38 0,-21.05 17.35,-33.63 26.22,-52.52 5.23,-2.99 9.74,-8.18 10.72,-13.13 3.57,-0.88 3.58,-2.47 3.58,-5.97l26.22 -29.84c5.89,0 4.3,-5.96 10.72,-5.96 4.32,-13.18 30.05,-10.52 11.92,-28.65 -12.11,-12.11 -32.66,-11.24 -45.29,-23.87 -33.36,-33.36 -15.52,-58.34 -11.91,-97.88 2.55,-27.88 2.38,-55.73 2.38,-84.74 0,-110.28 86.66,-175.06 176.37,-205.3 0,-2.41 0.64,-1.78 -1.19,-2.38l0 -2.39c-10.52,-2.6 -71.5,-34.39 -71.5,-42.97 2.41,0 1.78,0.64 2.38,-1.19 48.01,0 85.8,-93.36 102.48,-131.3 24.64,-16.38 7.15,-15.78 7.15,-39.38 9.35,-3.11 28.4,-22.94 30.99,-33.42 6.03,0 56.53,40.82 60.77,47.74 10.65,17.39 13.44,65.28 4.77,83.55 -8.84,18.61 -26.65,29.93 -39.33,48.94 -16,24.01 -37.42,47.43 -50.05,68.03 -22.68,37.02 -9.68,69.23 -67.92,69.23 0,59.49 45.96,116.32 53.62,177.84 6.64,26.34 2.39,57.39 2.39,85.94 0,24.88 8.81,49.23 9.53,75.19l4.77 170.69c0.95,34.53 22.64,63.05 22.64,101.45 0,22.94 -9.65,56.71 -4.77,76.39l1.19 1.19c34.73,0 66.64,-126.8 90.57,-153.97 43.21,-49.08 76.09,75.06 117.98,-27.45 14.41,-35.29 77.34,2.39 100.1,2.39 14.02,-28.17 28.38,-48.94 63.16,-48.94 11.18,-33.75 5.61,-68.58 13.11,-108.62 7.7,-7.7 47.09,-50.21 48.86,-57.29 2.69,-1.34 3.15,-2.96 3.57,-5.97 11.35,-2.81 2.77,-39.25 -1.19,-40.58 0,-37.61 67.71,2.4 61.97,-38.19 -11.71,-2.94 -31.91,-39.17 -29.8,-47.75 24.9,-8.16 51.3,-21.86 78.65,-28.64l17.88 -65.65c0,-5.26 1.19,-10.78 1.19,-16.71 -1.78,-0.59 -9.19,-25.02 -9.53,-27.45 -5.66,-2.83 -44.49,-32.71 -32.18,-35.81 2.78,-16.9 20.26,-27.38 20.26,-52.52 0,-19.31 2.03,-35.86 7.15,-51.32 11.48,-2.84 88.75,-32.11 95.34,-5.97 4.87,1.22 6.67,7.34 10.72,8.36 0.3,2.16 9.63,20.94 10.73,21.48 0,64.36 161.49,84.75 210.92,84.75 6.42,-19.59 33.71,16.09 41.71,17.9 0.91,2.75 3.26,0 5.96,0 0.83,-3.36 1.26,-1.25 3.57,-3.58 0.67,-0.67 0.61,-1.65 1.2,-2.39 1.79,-2.27 3.07,-4.81 4.76,-7.16 0.94,-1.32 1.92,-3.33 2.39,-4.77 0.73,-2.19 1.19,-4.69 1.19,-7.17l0 -8.35 0 -10.74c0,-7.27 -0.83,-2.52 9.53,-10.74 2.74,0 8.84,0.9 9.54,-1.2 9.19,0 16.37,-25.19 19.06,-32.23 4.08,-10.64 1.19,-20.54 1.19,-32.22 0,-22.64 23.24,-41.8 32.18,-59.68 9.38,-1.33 16.77,-7.55 28.6,-8.36 7.95,-0.55 17.12,-1.18 25.02,-2.38 20.03,-3.04 18.76,-27.13 29.8,-33.42 0,-3.11 -0.77,-3.99 2.38,-4.78 1.23,-4.96 5.35,-9.84 9.53,-11.93 2.6,-10.55 22.89,-24.79 25.03,-33.42 5.6,-1.13 32.63,-10.62 35.75,-1.2 10.95,0 18.65,10.67 28.6,13.13 1.29,2.59 11.62,8.17 14.2,9.55l0 -2491 -33.27 32.23 -1.19 1.19c-3.2,0 -3.23,1.71 -5.96,2.39 -6.41,25.86 -59.02,71.11 -76.27,94.29 -18.01,24.22 -22.1,59.06 -38.13,83.55 -18.76,28.64 -104.09,171.4 -138.23,137.26 -17.69,-17.69 -36.45,-85.6 -3.58,-96.68 2.95,-11.92 1.19,-21.35 1.19,-33.42 -87.99,-21.81 -153.66,70 -200.2,-59.68 -28.39,-79.09 -118.43,-118.9 -197.82,-74 -34.54,19.54 -62.53,140.27 -83.41,143.23 -15.02,59.6 -137.12,8.27 -166.84,2.39 -0.62,-2.52 -3.43,-5.35 -5.96,-5.97l-17.87 -65.65c-2.04,-1.02 -1.89,-1.08 -2.39,-3.58 -3.76,-0.93 -1.95,-4.04 -7.15,-4.77 -7.49,-30.34 -90.33,-21.17 -112.01,-22.68 -29.59,-2.06 -73.63,-72.97 -41.71,-83.55 0,-2.28 0.73,-2.95 -1.19,-3.58 0,-21.18 -35.35,-91.72 -56.01,-101.46 -69.24,-68.95 -85.48,-119.61 -178.76,-66.84 -85.96,48.62 -153.38,14.84 -204.96,107.43 -49.27,88.46 -154.2,-15.82 -194.25,-23.88l0 -2.38c-10.27,2.54 -27.14,55.99 -48.86,59.68l-126.31 21.48c-76.4,12.99 -196.46,-6.53 -270.51,-25.07 -50.69,-12.68 -250.46,-124.04 -178.76,-195.74 10.17,-10.17 49.1,-20.76 32.18,-39.39 -67.69,-74.5 9.44,-120.75 -2.38,-151.59 -0.22,-0.58 -63.35,2.06 -91.76,-9.54 -61.64,-25.19 -56.28,-29.27 -113.21,-64.46 -67.6,-41.77 -24.22,-82.94 -36.95,-133.68 -139.38,0 -123.99,-137.68 -165.64,-148 0,-128.73 -200.84,-153.53 -193.05,-286.46 0,-36.27 -13.28,-68.99 -15.49,-103.84 -0.55,-8.63 -1.92,-66.28 -7.15,-68.04 -0.37,-1.52 -0.82,-2.05 -1.19,-3.58 -2.31,-0.57 -3.01,-1.27 -3.58,-3.58 -32.49,-8.05 -103.82,-111 -117.98,-111 -0.82,-3.34 -2.75,-1.44 -3.57,-4.78 -87.91,-21.79 -87.83,-37.63 -102.48,-126.52 -6.44,-1.59 -8.42,-2.93 -15.5,-1.19l0 3.58c-21.78,14.56 10.41,58.72 -38.13,71.62 -26.98,7.16 -71.91,3.45 -94.14,-10.75 -34.83,-22.23 -13.39,-139.37 -42.9,-146.81 -0.48,-1.47 -0.92,-1.9 -2.39,-2.38l0 -2.39c-2.19,-0.54 -1.84,-0.2 -2.38,-2.39 -27.05,0 -39.13,27.96 -67.93,7.16 -14.42,-10.42 -25.62,-59.08 -27.4,-59.67l0 -3.59 -1.2 -1.19c-8.52,-2.11 -63.1,-10.6 -64.35,-14.32 -2.94,0 -7.67,-2.04 -8.34,-4.78 -2.3,-0.57 -3.01,-1.28 -3.57,-3.58 -7.59,-1.88 -9.95,-20.85 -19.07,-23.87 -0.53,-2.16 -1.85,-2.61 -2.38,-4.77 -2.65,-0.38 -3.38,-1.2 -5.96,-1.2 -38.23,57.83 -112.63,41.54 -159.69,3.58 -56.02,-45.17 -66.03,-83.42 -137.04,-65.64 -43.77,10.95 -104.78,5.51 -148.96,0l-170.41 -17.91c-58.13,-6.1 -94.11,-42.97 -152.53,-42.97 -36.73,0 -344.55,75.19 -349.17,107.43 -20.23,5.78 -8.41,43.01 -15.49,45.35 0,25.35 -189.45,272.14 -225.22,272.14 0,-26.8 51.46,-71.8 61.96,-99.07l52.44 -136.07c0,-58.73 126.98,-151.11 168.02,-187.39 28.16,-24.88 149.32,-166.37 171.61,-171.87 0,-65.99 -125.46,20.54 -143.01,32.22l-199.01 132.49c-61.9,41.21 -262.89,281.69 -325.32,281.69 -0.91,-2.73 -8.33,-7.17 -11.92,-7.17 -6.17,-18.62 -16.37,-17.99 -7.15,-44.16 -2.04,-10.34 -1.99,-19.07 -4.77,-27.45 -37.52,0 -92.85,60.84 -83.42,99.07 2.6,0 2.93,-0.27 3.58,2.38 1.53,0.25 8.98,3.1 9.53,4.78 15.11,0 29.47,2.38 44.1,2.38 0.6,1.84 -0.04,1.2 2.38,1.2 8.44,34.04 10.28,35.91 -19.07,69.23 -22.04,25.03 -48.54,51.28 -69.12,78.77 -51.34,68.55 -84.98,136.95 -125.12,210.07 -4.11,7.49 -26.47,32 -27.41,35.81 -8.54,1.69 -49.38,25.57 -56.01,-1.19 -3.15,-0.79 -14.79,-7.42 -15.49,-9.55 -3,-0.75 -4.11,-2.97 -5.96,-3.58 -7.16,-29.01 38.53,-74.67 46.48,-106.23l1.19 -1.2c2.42,0 1.78,-0.64 2.38,1.2 14.38,0 9.82,9.2 27.41,4.77 0,-2.34 7.1,-22.67 7.15,-22.68 0,-15.24 4.36,-59.44 -10.73,-64.45 0,-13.2 -19.05,-51.89 -26.21,-64.45 0,-53.83 -17.73,-103.18 -2.39,-157.55 13.19,-46.72 19.07,-80.76 19.07,-130.11 0,-91.62 61.33,-198.88 72.69,-292.42 6.6,-54.33 37.19,-94.75 48.86,-142.04 12.82,39.11 -41.1,62.7 17.88,53.71 35.26,-5.38 60.71,-27.46 73.88,-59.68 32.44,-79.41 96.53,-105.38 96.53,-201.71l40.51 -145.62c8.16,-29.37 74.68,-46.87 106.06,-59.68 59.84,-24.45 70.03,-202.3 96.53,-208.87 14.25,-57.72 60.51,-30.69 84.61,2.38 20.41,27.99 55.41,-56.34 38.13,-62.06 -0.68,-2.77 -3.61,-8.78 -5.96,-9.55 -15.92,-64.22 3.7,-134.59 29.8,-194.55 29.51,-67.82 174.76,-14.52 183.51,-76.39 3.07,-0.77 12.31,-12.27 13.11,-15.52 4.17,-1.03 7.07,-10.71 10.73,-11.94 0.44,-1.77 7.22,-10.17 9.53,-10.74l0 -2.39c1.52,-0.37 2.05,-0.82 3.58,-1.19 0.77,-2.33 0.43,-0.05 1.19,-2.39 1.99,-0.49 3.05,-0.8 3.57,-2.38 7.13,-1.79 6.49,-5.22 13.11,-6.86l-1382.34 0 -82.23 34.31c-62.21,31.1 -96.95,61.22 -145.39,109.81 -37.46,37.59 -106.42,108.59 -127.5,155.16 -46,28.83 -85.47,52.93 -140.62,60.88 -9.81,9.81 -34.75,26.36 -47.67,32.22 -19.94,32.09 -55.61,80.15 -86.99,101.46 -33.01,22.4 -90.54,30.84 -114.4,60.87 -53.56,67.38 -61.17,145.99 -76.27,226.78 -19.63,119.14 -191.02,224.91 -303.88,196.94 -0.8,-3.25 -5.14,-5.33 -8.34,-5.97 -8.1,-24.46 -102.66,38.25 -121.55,42.97 -28.64,7.17 -131.07,21.86 -141.81,-21.48l-4.77 0c-4.59,18.54 -115.28,123.39 -134.66,131.29 -38.51,15.72 -58.48,90.89 -85.8,127.71 -91.03,122.71 -257.26,170.1 -382.53,250.66 -64.05,41.2 -181.36,142.92 -259.78,138.45 -121.12,14.98 -212.45,-7.82 -331.29,20.29 -96.49,22.83 -180.99,74.11 -277.66,54.91 -43.02,-86.42 -294.78,-21.59 -364.65,-2.39 -148.97,40.96 -266.47,117.1 -353.93,243.49 -98.26,142.02 -400.27,434.62 -572.01,451.17l-415.89 139.65c-43.92,14.75 -243.65,135.95 -270.51,54.91 -66.79,16.49 -135.21,131.09 -213.42,174.84l0 0z"/>
  <path class="fil2 str0" d="M3661.09 5516.14l674.29 0.02 0 0 0 695.08 44.87 4.4 0 1372.71 0 0 -345.11 0 0 0 0 -348.62 -1071.32 0 0 322.27 -1016.93 0.63 0 0c-3.71,-75.38 5.97,-143.87 21.89,-219.06 10.68,-50.43 28.52,-91.53 79.84,-114.58 64.7,-29.07 149.56,-72.08 190.67,-131.29 34.52,-49.7 16.27,-114.61 64.35,-179.04 63.48,-85.09 -54.64,-87.39 40.52,-168.3 48.23,-41.02 29.57,-106.57 60.77,-156.35 21.86,-34.9 65.81,-61.07 100.1,-78.78 26.43,-13.66 49.75,-56.07 66.74,-76.39 23.83,-28.48 20.26,-19.1 47.66,-19.1 12.25,0 27.29,-41.77 70.31,-41.77 21.9,0 119.59,-42.63 133.47,-50.13 24.68,-13.35 51.83,-1.77 64.35,-22.68 30.54,-50.97 48.88,-124.13 113.21,-124.13 36.9,0 83.98,58.35 125.13,35.8 40.48,-22.17 40.56,-77.63 58.39,-118.16 26.72,-60.7 84.45,-148.6 160.88,-112.2 60.41,28.78 84.82,74.96 150.15,-5.96 5.44,-6.75 22.87,-15.48 30.95,-17.91 3.93,-1.19 7.78,-3.02 11.58,-5.52 2.37,-40.55 4.99,-81.37 27.31,-103.69 1.36,-10.81 28.95,-39.37 36.94,-48.34 11.76,-13.22 17.16,-27.83 27.41,-40.58 0,-28.85 -8.65,-44.48 -11.92,-70.42 -12.45,-12.51 -27.4,-42.89 -27.4,-60.28 23.99,-30.29 43.38,-13.7 70.9,-31.59l0 -86.04 0 0z"/>
  <path class="fil2 str0" d="M2330.92 9291.44l1704.22 1.26 0 0 0 341.35 69.13 0 0 1040.92 0 0 -1791.27 4.96 0 0c-20.07,-20.34 -48.3,-71.65 -45.15,-93.4 0.54,-3.79 5.29,-14.26 9.53,-16.71 12.17,-7.01 46.81,-29.73 50.05,-45.35 14.36,-69.17 -8.52,-136.61 -19.06,-202.91 -2.37,-14.97 -26.18,-138.28 -14.3,-155.17 7.45,-10.61 15.04,-85.53 -2.39,-97.87 -13.47,-9.55 13.02,-8.33 -2.38,-14.33 -37.54,-14.65 -131.31,-131.47 -109.63,-179.03 9.51,-20.85 156.97,-123.69 164.45,-143.23 22.87,-59.66 27.24,-166.88 9.53,-224.4 -3.24,-10.52 -62.75,-60.31 -64.35,-71.61 -8.63,-60.95 20.72,-65.17 35.79,-114.58 3.19,-10.45 5.06,-20.51 5.85,-30.25l-0.02 0.35z"/>
  <path class="fil2 str0" d="M2330.91 9291.43l1704.23 1.27 0 0 0 -1704.35 0 0 0 -348.62 -1071.32 0 0 322.27 -1016.93 0.63 0 0c1.03,21.03 3.12,42.62 6.4,65.02 11.25,76.79 -52.3,178.1 0,235.13 25.62,27.95 76.65,23.8 120.36,22.68 46.08,-1.18 92.16,-2.4 138.23,-3.58 53.04,-1.37 195.44,74.74 195.44,115.78 0,123.24 29.31,138.64 84.6,243.49 25.18,47.74 115.46,91.34 113.21,144.42 -1.93,45.67 8.41,100.96 1.2,148 -9.13,59.63 -44.35,52.63 -69.12,93.1 -15.09,24.67 -30.2,49.35 -45.29,74 -22.52,36.81 -3.65,80.25 -19.06,119.36 -13.23,33.55 -90.7,113.41 -119.17,139.65 -48.09,44.3 -83.72,57.13 -69.12,152.78 9.56,62.59 51.7,113.54 46.37,178.63l-0.03 0.34z"/>
  <path class="fil2 str0" d="M4252.59 12550.65l72.14 -349.2 44.09 -341.37 89.36 -146.81 1009.37 0 0 0 0 -350.86 2.36 0 -1365.64 0 0 0 0.64 630.76 -563.48 0.58 0 0c21.27,13.74 37.64,29.81 42.08,47.86l0.61 0.61c8.69,82.5 31.1,160.05 81.48,226.06 24.32,31.85 99.32,75.22 137.41,93.83 32.96,16.09 105.71,71.91 139.25,71.91 16.13,3.47 32.57,13.66 48.64,19.49 49.16,17.86 95.2,48.61 142.89,64.59l24.1 13.97c15.62,-8.37 10.75,-10.25 22.64,-4.78 10,4.59 48.46,3.47 57.2,11.94 5.01,4.86 9.97,8.57 14.86,11.42l0 0z"/>
  <path class="fil2 str0" d="M3541.43 11993.75l563.48 -0.58 -0.64 -630.76 0 0 0 -687.44 0 0 -1791.27 4.96 0 0c1.7,1.72 3.34,3.23 4.9,4.47 10.59,8.42 2.97,27.89 -7.15,33.43 -31.89,17.49 -3.59,94.05 -11.92,112.19 -10.49,22.87 -7.98,41.9 -16.68,59.68 -3.28,6.69 -51.49,144.32 -61.97,157.55 -6.73,8.51 -13.49,-1.63 -16.68,7.16 -17.12,47.12 -26.55,89.18 -34.61,146.91 38.71,18.84 73.65,38.03 94.23,51.23 66.32,42.56 132.67,85.15 199.01,127.71 82.33,52.83 159.79,162.93 226.42,235.14 25.27,27.4 1.94,111.09 51.24,120.55 68.46,13.15 88.49,19.51 116.79,62.07 25.42,38.25 -20.51,130.32 61.97,105.03 61.56,-18.88 111.98,18.83 171.6,8.36 18.29,-3.21 36.59,-6.43 54.89,-9.64 90.3,-4.09 185.85,19.31 272.48,41.74 28.69,7.43 84.66,24.9 123.91,50.24l0 0z"/>
  <path class="fil2 str0" d="M6009.42 14166.68l380.67 -0.45c0.32,-4.47 -1.68,-13.2 2.2,-14.47 0,-10.52 5.95,-22.14 5.95,-31.04 0,-15 -10.2,-23.72 -11.91,-35.8 -44.32,-26.62 -2.31,-154.65 17.87,-185.01 13.12,-19.76 22.01,-66.84 48.86,-66.84 38.68,0 80.19,-2.38 104.87,-37 47.23,0 55.11,58.69 110.83,56.1 69.24,-3.21 79.35,-71.16 100.1,-119.36 12.54,-1.55 23.04,-10.74 38.13,-10.74 14.28,0 21.39,12.24 29.79,14.32 0.62,6.94 6.89,21.62 14.3,22.68 0.46,3.28 1.4,4.44 3.58,7.16l30.45 42.43 0 0 0 -696.41 -26.88 0 0 -1398.98 0 0 -1041.45 0 0 0 0 1387.07c-5.74,13.83 -17.53,35.96 -32.25,38.07 -6.79,37.47 -61.82,56.09 -92.95,59.67 -27.78,3.19 -83.42,28.15 -83.42,56.1 0,34.2 60.11,28.07 10.73,70.42 -23.05,19.78 -38.46,50.14 -36.94,82.36 2.76,58.63 125.66,47.31 144.19,127.71 10.15,44.07 19.38,67.86 47.67,102.65 63.77,78.45 -18.39,116.48 -42.9,190.98 -16.34,49.7 -44.08,170.87 -83.82,210.78l0 0c88.95,44.17 213.97,41.48 307.85,91.19 20.92,11.07 38.54,23.3 54.19,36.17l0.29 0.24z"/>
  <path class="fil2 str0" d="M4252.59 12550.65l72.14 -349.2 44.09 -341.37 89.36 -146.81 1009.37 0 0 0 349.23 0 0 0 0 1387.07c-5.74,13.83 -17.53,35.96 -32.25,38.07 -6.79,37.47 -61.82,56.09 -92.95,59.67 -27.78,3.19 -83.42,28.15 -83.42,56.1 0,34.2 60.11,28.07 10.73,70.42 -23.05,19.78 -38.46,50.14 -36.94,82.36 2.76,58.63 125.66,47.31 144.19,127.71 10.15,44.07 19.38,67.86 47.67,102.65 63.77,78.45 -18.39,116.48 -42.9,190.98 -16.34,49.7 -44.08,170.87 -83.82,210.78l0 0c-10.31,-5.12 -20.15,-10.88 -29.39,-17.42 -158.75,-112.29 -244.66,-323.1 -427.82,-387.92 -81.32,-28.78 -283.04,-162.07 -321.75,-247.07 -4.34,-9.53 -28.9,-26.84 -36.94,-37 -21.54,-27.19 -57.61,-73.65 -54.82,-111 1.98,-26.44 18.37,-48.71 20.26,-74.01 7.62,-101.61 -133.78,-123.84 -119.17,-214.84 8.18,-50.96 13.11,-68.8 -16.68,-100.26 -11.73,-12.38 -44.18,-33.65 -57.2,-45.36 -17.63,-15.87 -20.54,-66.55 -40.52,-78.77 -25.13,-15.38 -58.06,-22.95 -83.42,-38.2 -60.06,-36.11 -100.84,-59.3 -148.96,-107.42 -23.94,-23.94 -50.03,-12.77 -78.09,-29.16l0 0z"/>
  <path class="fil2 str0" d="M6009.42 14166.68l380.67 -0.45c0.32,-4.47 -1.68,-13.2 2.2,-14.47 0,-10.52 5.95,-22.14 5.95,-31.04 0,-15 -10.2,-23.72 -11.91,-35.8 -44.32,-26.62 -2.31,-154.65 17.87,-185.01 13.12,-19.76 22.01,-66.84 48.86,-66.84 38.68,0 80.19,-2.38 104.87,-37 47.23,0 55.11,58.69 110.83,56.1 69.24,-3.21 79.35,-71.16 100.1,-119.36 12.54,-1.55 23.04,-10.74 38.13,-10.74 14.28,0 21.39,12.24 29.79,14.32 0.62,6.94 6.89,21.62 14.3,22.68 0.46,3.28 1.4,4.44 3.58,7.16l30.45 42.43 0 0 509.38 0 0 0 184.92 0 0 1373.19 0 0 -981.89 -0.37 0 0c-0.15,-4.67 -0.26,-9.34 -0.26,-13.99 0,-12.92 10.17,-28.11 14.3,-41.77 11.05,-36.59 18.04,-69.79 -11.92,-95.49 -40.05,-34.37 -59.86,-49 -39.33,-107.42 3.56,-10.15 18.04,-63.11 2.39,-72.81 -13.23,-8.19 -31.56,-23.27 -44.1,-35.81 -15.2,-15.2 -28.53,-32.74 -41.7,-48.93 -6.69,-8.24 -14.77,-26.14 -19.07,-34.62 -6.03,-11.91 -8.17,-28.99 -13.08,-41.69l-16.09 -54.55c-8.16,-6.91 -16.31,-13.83 -24.46,-20.73 -15.55,-13.17 -45.53,-34.87 -52.43,-58.48 -3.24,-11.07 -20.45,-39.6 -28.6,-52.52 -11.58,-18.38 -20.58,-43.92 -30.98,-64.46 -25.31,-50 -74.06,-98.1 -121.56,-125.32 -72.27,-41.4 -103.23,-98.5 -161.5,-146.45l0.29 0.24z"/>
  <path class="fil2 str0" d="M6859.08 18069.24l123.15 4.62c136.45,11.7 225.06,-70.89 337.18,-115.78 59.68,-23.9 94.3,-46.52 129.89,-103.84 16.04,-25.85 27.15,-46.93 53.63,-64.45 13.71,-9.06 61.9,-7.11 67.93,-14.32 55.87,0 161.59,-26.84 210.92,-52.52 35.13,-18.29 85.2,-84.36 115.6,-94.3 73.52,-24.03 127.78,-31.61 175.17,-100.26 35.93,-52.06 58.8,-109.98 122.75,-131.29l79.82 -18.66 0 0 0 -1007.81 0 0 -1588.74 4.19 0 0c11.47,13.5 24.77,26.01 34.81,39.96 38.61,53.59 52.84,119.06 25.02,179.04 -24.52,52.85 -41.8,86.57 2.39,127.71 22.54,20.97 95.31,32.47 121.55,52.52 36.59,27.94 86.91,38.15 120.36,72.81 15.8,16.36 31.6,32.75 47.41,49.13 1.64,1.52 1.63,2.4 3.6,1.35 41.49,30.31 58.06,82.46 58.06,133.44 -1.12,21.02 -2,36.59 -11.31,56.06 -12.87,26.88 -19.81,53.71 -31.62,79.21 -12.3,26.59 -22.84,55.27 -31.58,83.05 -49.81,33.81 -56.04,109.1 -77.46,164.71 -29.8,77.32 -64.62,78.83 -113.21,134.87 -20.81,23.99 -23.29,67.04 -28.6,103.85 -8.61,59.71 7.99,151.17 13.11,211.26 2.77,32.62 5.57,65.24 8.34,97.87 2.21,25.93 12.4,51.21 22.64,72.81 2.43,5.13 5.74,18.46 9.19,34.77l0 0z"/>
  <path class="fil2 str0" d="M6597.52 15181.48l981.89 0.37 0 0 1709.88 0 0 0 0 327.01 0 0 0 349.74 0 0 -1014.17 0 0 512.03 0 0 -1588.74 4.19 0 0c-13.66,-16.09 -24.77,-33.62 -24.77,-56.72 0,-46.83 45.28,-70.16 45.28,-119.35 0,-24.89 -5.45,-47.44 -13.06,-69.12l0 0c-12.51,-35.64 -30.9,-68.94 -40.57,-106.34 -2.67,-10.33 -2.36,-17.83 -7.15,-27.45 -3.61,-7.23 -11.38,-16.11 -11.91,-23.87 -1.26,-18.39 2.23,-34.5 7.15,-50.13 4.1,-13.06 15.46,-36.54 19.06,-50.14 6.11,-23.11 1.89,-34.6 -4.76,-57.29l-22.8 -56.51c0,-19.34 -11.11,-36.37 -12.16,-56.06 -1.44,-27.13 -3.65,-53.95 -3.65,-81.65 0,-75.77 -27.03,-134.06 -56.79,-200.51 1.61,-20.01 3.23,-40.02 4.83,-60.02 0.71,-8.87 -8.4,-70.34 2.38,-75.2 2.32,-1.05 1.5,-1.51 2.39,-3.58 2.73,-6.27 11.98,-19.15 16.68,-23.87 4.9,-4.91 11.56,-20.51 11.92,-27.45 0.76,-14.8 -0.39,-31.4 -0.93,-48.08l0 0z"/>
  <path class="fil2 str0" d="M6859.08 18069.24l123.15 4.62c136.45,11.7 225.06,-70.89 337.18,-115.78 59.68,-23.9 94.3,-46.52 129.89,-103.84 16.04,-25.85 27.15,-46.93 53.63,-64.45 13.71,-9.06 61.9,-7.11 67.93,-14.32 55.87,0 161.59,-26.84 210.92,-52.52 35.13,-18.29 85.2,-84.36 115.6,-94.3 73.52,-24.03 127.78,-31.61 175.17,-100.26 35.93,-52.06 58.8,-109.98 122.75,-131.29l79.82 -18.66 0 0c3.08,-0.62 19.97,-1.98 22.66,-5.21 38.43,0 84.65,-32.33 116.78,-50.13 52.58,-29.14 100.83,-78.69 166.84,-81.17l95.33 -3.58c27.4,-1.03 51.78,8.36 77.46,8.36 11.9,14.3 87.69,33.42 109.64,33.42 8.07,9.73 72.89,6.06 88.15,6.06l0 0 0 1505.05 0 0 -0.82 1210.21 0 0 -614.72 -9.97 0 0c3.13,-5.16 6.18,-10.54 9.01,-16.25 20.24,-40.49 15.28,-100.11 -21.45,-127.71l-2.27 -13.52c-5.19,-21.13 -17.87,-39.05 -27.06,-58.5 -14.25,-30.18 -36.86,-58.13 -46.86,-89.88 -21.61,-26.95 -22.05,-74.5 -43.78,-106.02 -34.06,-49.43 -64.71,-83.34 -115.53,-120.65 -27.16,-19.95 -95.01,-31.91 -129.77,-40.82 -34.34,-3.38 -67.99,-13.55 -102.15,-18.89l-131.54 -20.62c-23.99,0.34 -47.98,0.69 -71.96,1.02 -34.04,0.48 -69.65,-22.23 -94.14,-42.97 -26.44,-22.39 -63.52,-10.25 -97.72,-17.91 -21.24,-4.76 -40.06,-26.08 -58.39,-37 -9.92,-5.9 -21.79,-15.49 -26.22,-23.87 -7.54,-14.28 -45.93,-49.99 -59.58,-59.68 -21.68,-15.41 -54.48,-14.32 -79.84,-14.32 -28.88,0 -51.54,-33.46 -73.89,-48.94 -62.21,-43.12 -85.8,-60.07 -85.8,-140.84 0,-34.75 -27.72,-299.76 -32.17,-318.69 -14.93,-63.58 -80.11,-138 -112.02,-201.71 -0.79,-1.58 -1.6,-3.18 -2.39,-4.77 -22.72,-45.32 -19.18,-196.17 -25.02,-238.72 -1.12,-8.15 -22.05,-19.96 -23.83,-31.03 -1.98,-12.33 -3.98,-24.68 -5.96,-37 -2.08,-12.96 -9.89,-59.3 -17.03,-92.95l0 0z"/>
  <path class="fil2 str0" d="M15693.25 7021.25l-4.68 264.78 -1035.56 -27.29 0 0 -697.14 -23.78 0 -997.87 -25.68 0 1.13 -160.22 0 0c81.85,15.84 62.78,117.29 148.5,117.29 62.84,0 69.15,-106.1 107.25,-150.4 32.78,-38.1 68.74,64.08 140.62,52.52 43.22,-6.95 95.24,-69.47 126.32,-14.32 102.24,181.36 127.1,-35.98 209.73,88.32 54.9,82.57 91.42,56.78 135.85,21.49 40.19,-31.91 122.52,78.78 143.01,78.78 14.06,0 25.48,3.08 38.13,11.93 16.15,11.28 122.67,50.62 145.39,0 2.51,-5.6 11.51,-22.19 16.68,-21.48 8.73,1.19 17.47,2.39 26.19,3.58 159.61,21.81 168.19,12.75 246.68,82.35 75.37,66.85 202.08,111.48 169.22,223.2 -17.53,59.61 59.73,144.16 16.68,194.56 -22.55,26.4 -81.02,51.26 -91.76,74 -26.78,56.71 98.01,159.64 183.44,182.56l0 0z"/>
  <path class="fil2 str0" d="M17019.75 9787.92c5.56,11.04 13.16,26.99 16.6,34.72 2.67,5.98 45.29,68.01 26.22,72.81 0,-17.14 -45.47,-53.71 -58.39,-53.71 -3.99,16.13 -34.38,44.1 -42.9,63.26 -39.77,89.34 -0.77,246.06 -48.86,323.46 -69.45,69.59 -238.91,68.15 -358.23,83.26l0 0 -0.47 -170.39 -529.1 0 0 -128.92 -488.59 0 0 -347.33 -206.16 0 0 -350.91 -329.91 0 0 -703.56 -346.95 0 0 0 0 -1351.87 0 0 1035.56 27.29 4.68 -264.78 0 0c20.11,5.4 38.06,6.37 51.32,1.25 72.08,-27.84 103.78,-99.01 168.03,-48.94 63.15,49.22 23.61,143.23 131.09,143.23 68.22,0 159.12,-10.59 210.92,31.04 29.9,24.02 24.29,64.89 39.33,100.26 24.03,56.54 77.71,11.29 110.82,39.39 24.94,21.15 6.37,55.6 28.6,77.58 21.09,20.85 50.24,51.54 39.33,78.77 -7.43,18.53 -78.17,41.23 -88.18,59.68 -50.82,93.68 77.24,146.06 106.05,220.82 15.5,40.25 -32.65,223.2 -73.88,165.9 -2.06,-2.87 -17.89,-6.73 -20.26,-7.16 -8.29,-1.54 -19.91,-3.13 -23.83,2.39 -29.07,41.02 25.76,96.38 29.79,142.04 4.94,56.07 35.75,105.09 35.75,163.52 0,66.33 -64.23,75.4 -92.95,124.13 -19.66,33.35 -90.13,60.62 -95.33,89.52 -8.18,45.44 45.26,88.14 34.55,139.65 -12.01,57.82 -61.19,95.42 -79.84,152.77 -22.46,69.1 11.98,44.89 57.2,60.88 47.43,16.78 77.62,44.45 132.28,16.71 57.7,-29.29 94.22,0 148.96,0 46.49,0 102.52,-105.07 133.47,-138.46 56.63,-61.12 87.97,-11.29 137.04,45.36 20.24,23.36 68.73,118.27 44.09,142.03 -31.27,30.16 -56.36,111.93 -101.29,137.27 -44.34,25.02 -79.84,128.01 -79.84,181.42 0,65.57 -39.63,92.86 -23.84,152.78 11.69,44.4 -26.59,61.06 -52.43,78.77 -31.63,21.69 22.72,105.44 30.98,124.14 26.94,61.01 105.27,77.09 133.47,122.93 8.06,13.09 34.4,77.9 41.71,89.52 3.59,5.69 21.28,28.15 29.79,33.42 13.52,8.38 28.63,13.44 45.28,16.71 46.07,9.05 92.25,18.29 138.32,27.35l0 0z"/>
  <path class="fil2 str0" d="M13219.59 5823.93l-1.37 395.16 -326.52 0 0 345.09 0 0 -5.95 1693.68 0 0 348.07 0 0 352.75 707.76 0 0 0 711.43 0 0 0 0 -1351.87 0 0 -697.14 -23.78 0 -997.87 -25.68 0 1.13 -160.22 0 0c-6.93,-1.34 -14.6,-2.07 -23.11,-2.07 -40.94,0 -85.97,7.75 -121.55,0 -46.27,-10.07 -40.36,-95.49 -88.18,-62.07 -39.6,27.66 -106.94,5.93 -140.62,7.16 -5.7,0.21 -12.28,0.64 -20.05,1.5l-318.22 -197.46 0 0z"/>
  <path class="fil2 str0" d="M10958.8 16886.25l1027.23 0 0 48.99 1021.27 0 0 0 0 322.21 0 0 -20.24 1403.7 0 0 -1002.2 0 0 0 0 -51.99 -1339.46 0 0 0 -1.81 -1376.18 0 0c4.16,-1.48 8.27,-2.99 12.52,-4.17 6.27,-14.18 32.23,-76.61 47.67,-78.78 9.99,-22.08 44.11,-11.68 53.62,-25.07 31.67,0 53.91,-5.93 81.04,-20.29 33.8,-17.9 79.39,-56.8 101.29,-88.32 15.65,-22.54 37.96,-59.98 22.64,-90.71l-3.57 -39.39 0 0z"/>
  <path class="fil2 str0" d="M17630.27 9456.21c0,-18.19 9.68,-33.53 12.51,-51.32 3.07,-19.35 9.97,-61.35 36.94,-41.18 10.33,7.73 18.47,11.07 29.2,2.39 6.8,-5.49 8.37,-20.36 13.11,-28.65 9.16,-1.32 52.29,-34.58 43.49,-8.36 0,43.7 -14.3,85.38 -14.3,127.72 0,18.68 9.56,29.69 11.32,45.35 2.01,17.97 23.84,33.56 23.84,50.13 -15.76,0 -57.93,-32.57 -73.29,-40.58 -14.62,-7.61 -28.87,-17.45 -42.9,-26.26 -11.62,-7.31 -30.01,-19.23 -39.92,-29.24zm1242.9 -532.34c-7.2,-8.39 -13.26,-22.41 -25.03,-26.25 -8.79,-2.86 -10.66,-2.54 -19.06,1.19 -5.65,2.5 -14.56,2.65 -19.07,7.16 0,15.08 14.71,28.44 25.62,37.6 5.04,4.24 10.79,8.98 14.3,13.72 2.8,3.77 6.05,8.43 9.53,11.94 4.72,0 9.25,2.92 11.32,-3.58 2.4,-7.54 1.2,-13.33 1.2,-20.89l1.19 -20.89zm92.95 -50.13c-3.83,-6.98 -11.84,-16.73 -13.11,-24.46 -9.82,-8.45 -1.78,-25.9 -20.86,-28.05 -24.3,-2.73 -14.32,-4.82 -28,-20.29 -20.28,-22.95 -4.52,-42.97 22.64,-42.97 8.72,0 27.09,31.91 30.39,39.98 15.61,38.24 44.04,21.79 78.05,28.65 18.79,3.78 29.37,14.78 48.26,1.79 20.33,-13.99 2,-85.84 13.71,-113.99 9.11,-21.93 26.57,-33.46 42.9,-50.73 18.39,-19.46 27.66,-51.01 34.56,-76.39 -2.11,-35.64 -28.74,-32.98 -45.88,-55.5 -15.17,-19.94 -17.65,-39.48 -48.26,-38.19 -25.82,1.09 -75.76,16.83 -100.1,26.26 -26,10.08 -44.31,51.83 -72.69,47.74 -6.05,-10.02 11.32,-45.51 11.32,-60.28 0,-11.06 -15.58,-43.61 -30.39,-35.21 -11.5,46.58 -62.59,113.07 -53.03,161.73 4.54,23.08 29,59.21 24.43,81.17 -4.11,19.72 -39.92,0.82 -39.92,34.61 15.47,12.95 -3.83,46 14.89,60.87 21.27,16.91 50.44,6.24 73.29,29.25 2.48,8.57 7.27,15.04 9.53,23.27 3.63,13.27 6.09,25.64 16.09,36.41 14.3,15.42 29.87,18.63 35.16,39.98 1.72,6.93 3.03,16.25 3.57,23.28 0.69,9.06 6.76,15.18 7.75,22.08 6.38,3.62 18.24,28.17 26.81,21.48 7.82,-6.12 0.91,-54.57 0,-67.44 -0.7,-9.81 -6.04,-15.37 -11.92,-22.67 -3.04,-3.76 -16.8,-25.52 -19.06,-26.26l-10.13 -16.12zm239.52 -334.2c11.85,0 23.48,-1.19 35.15,-1.19 8.4,0 16.76,1.75 22.64,-4.18 0,-13.89 6.6,-39.71 1.2,-51.92 -5.44,-12.33 -18.4,-15.97 -28.6,-24.47 -10.25,-8.55 -16.66,-23.56 -30.39,-26.26 -23.04,-4.52 -22.3,17.45 -21.45,34.02 0.37,7.21 4.29,15.24 5.36,22.68 1.38,9.51 4.14,19.14 4.77,28.64l11.32 22.68zm-2538.36 2857.9l1028.6 0.08 0 0c20.94,-43.79 45.43,-110.28 47.14,-139 2.48,-41.66 0.41,-78.04 25.02,-112.2 35.83,-49.76 17.95,-91.99 44.1,-133.68 32.77,-52.26 96.52,-75.1 96.52,-137.26 0,-51.35 47.34,-68.87 56.01,-103.84 29.26,-7.37 118.12,-42.09 127.51,-79.97 55.63,-11.24 27.13,-69.16 4.77,-100.26 -60.23,-105.34 201.72,-85.48 96.52,-190.98 -55.42,-55.59 -1.11,-203.28 51.24,-241.1 60.66,-43.84 95.59,-85.25 110.83,-164.71 6.83,-35.6 2.7,-65.43 11.92,-102.65 2.18,-0.55 1.84,-0.2 2.38,-2.39 19.48,-4.83 52.84,-20.66 59.58,13.13 11.03,55.25 3.5,47.22 39.33,38.19 8.5,-34.32 27.37,-39.37 -4.77,-71.61 -21.51,-21.59 -51.76,-72.94 7.15,-64.45 0.73,2.97 17.08,8.95 21.45,15.51 5.74,8.61 10.45,16.42 17.88,23.87 15.34,15.4 28.22,-24.94 32.17,-26.25l0 -3.59 1.2 -1.19c6.87,-1.7 7.35,-1.19 14.3,-1.19 1.45,5.88 9.42,3.3 13.1,2.38 3.66,-14.54 -4.76,-36.44 -4.76,-53.71 10.62,-5.31 -6.86,-65.96 -13.11,-68.03 -1.99,-8.06 -51.91,-35.75 -60.78,-37 -0.29,-1.17 -6.22,-8.05 -7.15,-8.36 0,-6.37 -4.26,-11.92 -7.15,-17.9 2.92,-23.66 -10.28,-108.9 40.52,-63.26 23.64,21.25 47.13,79.54 82.23,62.07 1.58,-8.02 14.3,-18.62 14.3,-27.46 6.05,-1.5 3.57,-17.94 3.57,-22.67 -45.04,-15.18 -46.3,-73.08 -40.52,-109.81l21.45 -136.07c0,-2.69 1.2,-3.28 1.2,-5.97 33.89,-16.94 2.38,-64.27 2.38,-85.94l1.19 -1.19c50.8,0 109.14,113.12 132.28,66.84 3.69,-0.73 7.36,-2 8.34,-5.97 15.05,-2.13 22.57,-19.44 30.98,-25.06 0,-11.5 -31.33,-60.25 -13.11,-63.26 0.79,-4.75 25.98,-24.22 13.11,-27.46l-1.19 -1.19c-0.52,-2.13 -3.74,-4.22 -5.96,-4.77 -1.66,-6.75 -13.29,-11.74 -14.3,-17.91 -7.72,-1.91 -4.64,-75.2 14.3,-79.97 2.68,-10.82 46.51,-67.98 -3.57,-76.39 -1.88,-13.33 -52.55,-36.72 -56.01,-22.67 -19.22,0 -29.47,-0.2 -48.86,-2.39 -17.93,-2.02 -18.76,26.15 -33.37,33.42 -27.85,13.88 -87.69,-12.13 -95.33,-42.97 -7.39,0 -23.9,81.66 -30.98,93.1 -20.89,33.77 -8.35,50.29 -8.35,85.94 -25.45,8.43 -59.03,-15.56 -88.18,-10.75 0,66.59 -65.95,129.51 -46.48,202.91 4.59,17.3 13.11,47.23 13.11,64.46l-1.19 1.19c-18.06,4.47 -40.36,-1.03 -58.39,3.58 -17.83,4.57 -38.52,16.58 -56.01,19.1 -1.19,4.83 -10.55,4.05 -14.3,4.77 -58.57,9.84 4.79,202.9 -78.65,128.91 -14.8,-13.12 -8.53,-37.35 -20.26,-47.74 -25.61,-22.71 -63.3,5.67 -73.88,-37 -10.58,0 -18.62,8.35 -29.8,8.35 -0.81,2.44 -2.38,1.77 -2.38,5.97 -9.05,3 2.37,46.72 -13.11,48.94 0,28.61 -8.34,67.24 -8.34,97.87 -46.82,15.51 -44.73,155.99 -63.16,201.71 -9.18,22.8 -40.15,28.27 -41.71,34.62 -22.93,4.55 -8,80.74 -13.11,99.06 -8.97,32.09 -56.23,-25.06 -69.11,-25.06l0 2.39c-15.32,7.66 -59.59,142.55 -59.59,161.13 -81.56,20.22 -107.41,228.88 -162.06,293.62 0,30.02 -76.16,133.84 -50.06,159.94 33.88,33.88 71.51,109.12 71.51,167.1 0,49.9 -39.61,60.58 -2.39,95.49l112.02 105.03c-14.39,-3.56 -142.69,-86.46 -147.77,-96.68 -23.14,-46.6 -33.51,-93.59 -60.77,-143.23 -13.84,-25.22 -92.35,-46.09 -54.82,-59.68 25.27,-9.14 47.66,2.85 17.87,-15.51 -34.96,-21.53 -118.99,57.11 -138.23,88.32 -26.07,42.26 -30.79,35.92 -65.54,10.75 -54.06,-39.14 -66.68,-47.98 -34.56,16.71 34.17,68.79 -67.22,18.75 -69.12,20.29 -3.4,2.78 -14.39,56.73 -20.26,69.22 -8.58,18.22 -38.93,72.15 -50.05,28.65 -7.54,-29.48 19.36,-52.51 17.88,-65.65 -6.16,-54.69 -120.53,16.25 -146.58,35.81 -68.33,51.34 -121.24,155.95 -162.07,226.78 -38.04,66.01 -179.1,194.14 -171.6,272.14 5.79,15.48 14.96,48.45 15.84,75.66l0 0z"/>
  <path class="fil2 str0" d="M16531.08 12790.85l650.38 0.46 0 0c-20.95,51.43 -22.94,167.35 -12.83,200.29 35,113.87 130.56,224.97 97.72,353.3 -35.07,137.07 -105.43,203.02 -233.57,267.36 -63.47,63.55 -137.36,88.66 -175.18,168.29 -24.95,52.51 -13.86,136.28 -28.6,195.75 -27.96,6.93 -60.05,124.67 -73.88,149.2 -23.07,40.93 -15.52,94.66 -28.6,137.26 -7.79,25.36 0.21,50.44 -17.88,72.81 -33.07,40.88 -37.31,71.54 -54.82,116.97 -6.32,16.4 -8.74,37.63 -10.23,59.81l0 0 -897.03 -0.13 0 0 1.73 -1402.44 0 0 439.6 0 0 -318.93 343.19 0 0 0z"/>
  <path class="fil2 str0" d="M16528.88 11611.88c30.59,-18.27 48.67,-49.01 52.25,-100.32 1.86,-26.77 57.51,-59.54 76.27,-76.39 7.95,-7.15 10.41,-21.41 9.88,-37.73l0 0 1028.6 0.08 0 0c-6.29,13.15 -12.27,24.26 -17.21,31.68 -35.5,53.25 -44.41,121.16 -79.85,168.29 -3.27,8.09 -17.87,31.52 -17.87,39.39 -23.91,17.14 -42.58,63.29 -69.12,84.75 -92.56,74.82 -151.33,285.03 -172.79,403.43 -13.45,74.18 -47.18,160.53 -51.24,232.74 -1.92,34.09 1.97,63.84 -7.15,96.68l-38.14 137.27c-16.27,34.75 -8.43,80.88 -13.11,118.16 -3.17,2.12 -32.82,55.25 -33.36,59.68 -5.63,4.01 -10.47,11.63 -14.58,21.72l0 0 -650.38 -0.46 0 0 -2.2 -1178.97 0 0z"/>
  <path class="fil2 str0" d="M15166.52 11367.13l0 -675.66 -672 2.48 0 0 -729.31 0 0 -350.89 -687.58 0 0 -345.59 0 0 -697.12 0 0 0 0.13 1364.85 0 0 1752.33 0 0 375.16 0 0 1053.9 0 0 0 0 -286.86 -40.61 -1.13 0 -82.36 20.26 0 0 0z"/>
  <path class="fil2 str0" d="M15186.87 11737.48l0 -286.86 -40.61 -1.13 0 -82.36 20.26 0 0 0 62.63 0 0 45.36 655.04 0.6 0 0c-0.33,20.21 1.01,41.18 10.54,55.5 9.97,17.87 13.66,46.18 18.37,66.24 4.29,18.25 17.87,33.59 17.87,53.71 -12.74,0 -27.34,-36.54 -30.98,-47.14 -2.8,-8.13 -24.5,-51.22 -29.79,-52.52l-0.6 0.59c0,17.86 -9.91,47.14 -14.3,65.65 -4.77,20.06 -4.78,41.45 -10.73,60.87 -11.03,36.02 -15.68,50.51 2.98,84.15 19.6,35.31 61.7,70.66 73.29,107.42 7.17,22.72 -35.95,-19.98 -39.92,-22.67 -14.61,-9.88 -46.54,-56.7 -59.58,-56.7 0,24.87 16.96,97.39 -5.96,113.39 -38.87,39.35 -120.6,34.06 -42.21,97.28 75.48,60.88 123.73,112.19 232.38,112.19 78.75,0 144.19,-109.66 144.19,-180.23l-50.05 -11.93 0 -2.39c30.63,-10.04 78.68,-30.61 96.53,-60.87 17.35,-29.43 39.39,-50.65 54.82,-78.78 9,-16.39 47.97,-2.77 63.16,-4.77 36.21,-4.79 65.93,-72.09 121.55,-76.39 37.98,-2.94 69.35,-9.6 93.13,-23.81l0 0 2.2 1178.97 0 0 -343.19 0 0 318.93 -439.6 0 0 0 -420.79 0 0 0 0 -1371.3 -140.63 -1 0 0z"/>
  <path class="fil2 str0" d="M15166.52 11367.13l0 -675.66 -672 2.48 0 0 -2.32 -1031.08 -437.39 0 0 0 0 -348.7 -113.23 0 0 -703.56 0 0 711.43 0 0 0 346.95 0 0 703.56 329.91 0 0 350.91 206.16 0 0 347.33 488.59 0 0 128.92 529.1 0 0.47 170.39 0 0c-18.64,2.36 -36.08,5.13 -51.71,8.64 -87.76,19.71 -120.95,27.61 -169.22,100.26 -22.16,33.35 -43.7,141.39 11.92,155.17 1.83,3.67 5.89,3.93 7.15,8.35 33.79,8.52 -56.72,118.34 -65.54,136.07 -10.31,20.75 -12.78,58.13 -27.41,72.81 -17.23,17.28 -65.94,40.21 -73.88,56.1 -3.36,0.83 -4.3,3.97 -8.35,4.77 -1.27,5.15 -10.3,4.22 -11.91,10.75 -13.03,3.21 -59.1,124.87 -73.89,145.61 -16.1,22.6 -20.96,56.74 -34.56,82.36 -22.54,42.49 -45.83,53.73 -75.07,89.52 -4.03,13.74 -25.57,52.5 -38.14,59.68 -1.84,13 -23.41,43.81 -30.98,56.1 -12.71,20.6 -27.41,57.06 -27.41,81.16 0,10.01 -0.81,21.88 -1,34.02l0 0 -655.04 -0.6 0 -45.36 -62.63 0 0 0z"/>
  <path class="fil2 str0" d="M13077.63 9997.47l0 345.59 687.58 0 0 350.89 729.31 0 0 0 -2.32 -1031.08 -437.39 0 0 0 -977.18 2.17 0 332.43 0 0z"/>
  <path class="fil2 str0" d="M12891.7 6564.18l-5.95 1693.68 0 0 -1086.2 0 0 0 0 -344.97 -1740.47 0 0 0 2.39 -1347.46 0 0 2107.04 0 0 137.19 354.96 5.97 0 -144.41 368.23 0 0 0z"/>
  <path class="fil2 str0" d="M13941.58 8610.61l0 703.56 113.23 0 0 348.7 0 0 -977.18 2.17 0 332.43 0 0 -697.12 0 0 0 0 -360.99 -580.38 0 0 0 -0.58 -1378.62 0 0 1086.2 0 0 0 348.07 0 0 352.75 707.76 0 0 0z"/>
  <path class="fil2 str0" d="M11799.55 8257.86l0.58 1378.62 0 0 -1741.05 0 0 0 0 -1024.06 0 0 0 -699.53 0 0 1740.47 0 0 344.97 0 0z"/>
  <path class="fil2 str0" d="M13354.07 14511.18l1371.58 0 0.11 -188.72 0 0 0 -1212.68 0 0 -953.46 0 0 0 -418.23 0 0 0 0 1051.52 0 0 0 349.88 0 0z"/>
  <path class="fil2 str0" d="M12380.64 11362.32l1752.33 0 0 375.16 0 0 -360.67 0 0 1372.3 0 0 -418.23 0 0 0 -973.43 0.05 0 0 0 -1747.51 0 0z"/>
  <path class="fil2 str0" d="M14132.97 11737.48l-360.67 0 0 1372.3 0 0 953.46 0 0 0 601.74 0 0 0 0 -1371.3 -140.63 -1 0 0 -1053.9 0 0 0z"/>
  <path class="fil2 str0" d="M14725.76 13109.78l601.74 0 0 0 420.79 0 0 0 -1.73 1402.44 0 0 -327.26 0 0 0 0 -189.76 -693.54 0 0 0 0 -1212.68 0 0z"/>
  <path class="fil2 str0" d="M10477.37 13109.4l465.18 0.41 0 0 0 -1053.98 -321 0 0 -693.51 0 0 -1346.6 0 0 0 0 1049.2 0 0 -4.77 697.88 0 0 1207.19 0 0 0z"/>
  <path class="fil2 str0" d="M10059.08 9636.48l1741.05 0 0 0 580.38 0 0 360.99 0 0 0.13 1364.85 0 0 -1759.09 0 0 0 -1346.6 0 0 0 -4.74 -1374.99 0 0 347.97 0 0 -348.57 440.9 -2.28 0 0z"/>
  <path class="fil2 str0" d="M10621.55 11362.32l1759.09 0 0 0 0 1747.51 0 0 -1063.64 -0.02 0 0 -374.45 0 0 0 0 -1053.98 -321 0 0 -693.51 0 0z"/>
  <path class="fil2 str0" d="M12334.01 15508.86l0 -472.67 7.1 1.79c1.22,-1.71 3.73,-3.58 5.96,-3.58 3.86,-6.81 23.35,-2.74 29.19,-1.79 17.59,2.85 24.76,7.1 42.9,1.79 14.1,-4.12 22.49,-9.55 38.13,-9.55 17.83,0 46.48,17.96 62.57,10.15 25.17,-12.2 27.4,-73.08 27.4,-100.26 0,-18.21 7.98,-85.34 -16.08,-85.34 -0.61,3.7 -14.01,15.69 -18.47,17.91 -9.06,4.53 -33.25,3.01 -42.31,-1.2l0 -287.08 79.31 0 2.36 -418.86 0 0 -1235.07 0 0 0 -7.84 1348.69 0 0 1024.85 0 0 0z"/>
  <path class="fil2 str0" d="M13354.07 14161.3l0 349.88 0 0 2.33 1029.9 0 0 -351.44 0 0 0 -346.79 0 0 -32.22 -324.16 0 0 0 0 -472.67 7.1 1.79c1.22,-1.71 3.73,-3.58 5.96,-3.58 3.86,-6.81 23.35,-2.74 29.19,-1.79 17.59,2.85 24.76,7.1 42.9,1.79 14.1,-4.12 22.49,-9.55 38.13,-9.55 17.83,0 46.48,17.96 62.57,10.15 25.17,-12.2 27.4,-73.08 27.4,-100.26 0,-18.21 7.98,-85.34 -16.08,-85.34 -0.61,3.7 -14.01,15.69 -18.47,17.91 -9.06,4.53 -33.25,3.01 -42.31,-1.2l0 -287.08 79.31 0 2.36 -418.86 0 0 802 1.13 0 0z"/>
  <path class="fil2 str0" d="M11317 14160.17l1235.07 0 0 0 802 1.13 0 0 0 -1051.52 0 0 -973.43 0.05 0 0 -1063.64 -0.02 0 0 0 1050.36 0 0z"/>
  <path class="fil2 str0" d="M10643.59 17232.98c4.16,-1.48 8.27,-2.99 12.52,-4.17 6.27,-14.18 32.23,-76.61 47.67,-78.78 9.99,-22.08 44.11,-11.68 53.62,-25.07 31.67,0 53.91,-5.93 81.04,-20.29 33.8,-17.9 79.39,-56.8 101.29,-88.32 15.65,-22.54 37.96,-59.98 22.64,-90.71l-3.57 -39.39 0 0 -8.35 -21.49c0,-3.17 0.36,-14.84 2.39,-15.51 0,-3.5 -0.97,-10.83 2.38,-11.94 0.39,-2.82 3.73,-13.58 5.96,-14.32 0,-8.97 7.43,-20.42 11.92,-27.45 5.97,-9.37 7.72,-22.96 15.49,-28.65 3.5,-2.55 12.75,-8.04 14.3,-11.94 9.26,-2.65 24.07,-21.8 28.6,-29.84 10.12,-17.99 17.02,-27.72 9.53,-47.74 6.26,-8.93 9.87,-17.8 15.49,-26.26 10.13,0 24.01,-11.26 34.56,-14.32 12.89,-3.73 33.13,-8.36 46.48,-8.36 29.74,0 70.64,-4.59 94.14,-20.29 13.85,-9.24 34,-8.74 47.67,-20.29 16.23,-13.73 40.57,-10.14 33.36,-40.38l0 -702.02c-34.62,-86.84 -121.93,-0.51 -183.51,-26.26 -20.42,-8.54 -30.77,-11.94 -54.82,-11.94 -31.73,0 -50.64,13.76 -85.8,8.36 -37.62,-5.77 -62.41,-45.18 -46.48,-81.17 2.15,-4.86 27.78,-39.12 28.6,-39.39 0,-9.35 -1.19,-16.59 -2.38,-25.06 -33.18,-8.22 -151.95,-18.84 -156.11,-60.87 -22.07,-7.35 -4.8,-95.69 -16.68,-100.26l0 0 -1506.25 0 0 0 0 349.74 0 0 333.8 0 -2.55 1538.5 0 0c72.95,23.62 195.66,-47.7 259.79,10.74 71.23,64.93 122.52,44.57 178.75,-26.26 37.44,-47.18 88.98,-97.77 150.15,-106.22 36.53,-5.04 77.59,7.34 117.98,5.96 75.11,-2.57 82.98,43.44 166.83,-2.38 13.68,-7.48 86.59,-9.55 103.68,-9.55l19.06 -10.75c4.29,0 19.7,-21.27 26.81,-25.66l0 0z"/>
  <path class="fil2 str0" d="M11309.16 15508.86l1024.85 0 0 0 324.16 0 0 32.22 346.79 0 0 0 2.34 1394.16 0 0 -1021.27 0 0 -48.99 -1027.23 0 0 0 -8.35 -21.49c0,-3.17 0.36,-14.84 2.39,-15.51 0,-3.5 -0.97,-10.83 2.38,-11.94 0.39,-2.82 3.73,-13.58 5.96,-14.32 0,-8.97 7.43,-20.42 11.92,-27.45 5.97,-9.37 7.72,-22.96 15.49,-28.65 3.5,-2.55 12.75,-8.04 14.3,-11.94 9.26,-2.65 24.07,-21.8 28.6,-29.84 10.12,-17.99 17.02,-27.72 9.53,-47.74 6.26,-8.93 9.87,-17.8 15.49,-26.26 10.13,0 24.01,-11.26 34.56,-14.32 12.89,-3.73 33.13,-8.36 46.48,-8.36 29.74,0 70.64,-4.59 94.14,-20.29 13.85,-9.24 34,-8.74 47.67,-20.29 16.23,-13.73 40.57,-10.14 33.36,-40.38l0 -702.02c-34.62,-86.84 -121.93,-0.51 -183.51,-26.26 -20.42,-8.54 -30.77,-11.94 -54.82,-11.94 -31.73,0 -50.64,13.76 -85.8,8.36 -37.62,-5.77 -62.41,-45.18 -46.48,-81.17 2.15,-4.86 27.78,-39.12 28.6,-39.39 0,-9.35 -1.19,-16.59 -2.38,-25.06 -33.18,-8.22 -151.95,-18.84 -156.11,-60.87 -22.07,-7.35 -4.8,-95.69 -16.68,-100.26l0 0 513.62 0 0 0z"/>
  <path class="fil2 str0" d="M10795.54 15508.86l513.62 0 0 0 7.84 -1348.69 0 0 0 -1050.36 0 0 -374.45 0 0 0 -465.18 -0.41 0 0c10.36,10.36 10.77,9.06 13.1,20.65 -1.8,1.79 -5.75,14.44 -5.96,15.52 -24.09,0 -103.83,99.9 -66.74,112.19 0,6.54 5.09,11.71 5.96,17.91 18.52,4.59 72.62,101.45 19.07,101.45 -35.7,0 -38.02,63.34 -41.71,89.52 -5.32,1.32 -6.57,0.75 -11.92,0 -0.49,-3.02 -3.35,-6.63 -7.15,-7.16 -4.62,-32.78 -75.63,-35.96 -97.71,-19.1 -40.36,30.84 -16.3,79.29 -36.95,124.13 -19.83,43.04 -53.57,28.13 -84.6,44.17 -14.32,7.41 -7.05,45.16 -16.69,59.68 -24.09,36.24 -41.71,28.45 -41.71,81.16 0,46.75 17.47,94.85 21.45,143.23 81.18,52.24 27.47,83.23 41.71,155.16 102.39,40.88 70.76,73.52 112.02,156.36 19.09,38.31 80.02,128.83 22.64,162.33 -70.31,41.06 -26.33,21.54 -23.83,88.32 2.46,65.53 5.21,161.94 63.16,204.11 33.28,24.21 116.97,147.85 127.51,187.39 60.37,29.37 93.12,83.32 119.16,142.04 12.89,29.06 30.13,72.65 36.95,102.64 4.53,19.96 18.91,86.43 32.17,97.88 1.74,19.35 22.62,52.94 28.6,75.19 12.78,47.48 15.95,77.12 51.24,114.59 27.91,29.62 45.29,41.36 45.29,87.13l13.11 42.97 0 0z"/>
  <path class="fil2 str0" d="M10477.37 13109.4c10.36,10.36 10.77,9.06 13.1,20.65 -1.8,1.79 -5.75,14.44 -5.96,15.52 -24.09,0 -103.83,99.9 -66.74,112.19 0,6.54 5.09,11.71 5.96,17.91 18.52,4.59 72.62,101.45 19.07,101.45 -35.7,0 -38.02,63.34 -41.71,89.52 -5.32,1.32 -6.57,0.75 -11.92,0 -0.49,-3.02 -3.35,-6.63 -7.15,-7.16 -4.62,-32.78 -75.63,-35.96 -97.71,-19.1 -40.36,30.84 -16.3,79.29 -36.95,124.13 -19.83,43.04 -53.57,28.13 -84.6,44.17 -14.32,7.41 -7.05,45.16 -16.69,59.68 -24.09,36.24 -41.71,28.45 -41.71,81.16 0,46.75 17.47,94.85 21.45,143.23 81.18,52.24 27.47,83.23 41.71,155.16 102.39,40.88 70.76,73.52 112.02,156.36 19.09,38.31 80.02,128.83 22.64,162.33 -70.31,41.06 -26.33,21.54 -23.83,88.32 2.46,65.53 5.21,161.94 63.16,204.11 33.28,24.21 116.97,147.85 127.51,187.39 60.37,29.37 93.12,83.32 119.16,142.04 12.89,29.06 30.13,72.65 36.95,102.64 4.53,19.96 18.91,86.43 32.17,97.88 1.74,19.35 22.62,52.94 28.6,75.19 12.78,47.48 15.95,77.12 51.24,114.59 27.91,29.62 45.29,41.36 45.29,87.13l13.11 42.97 0 0 -1506.25 0 0 -327.01 -19.11 -1718.79 0 0 0 -353.66 0 0 1207.19 0 0 0z"/>
  <path class="fil2 str0" d="M7558.95 9987.33l-21.48 -1019.27 0 0 -1742.24 0 0 0 0 324.67 -364.48 -0.03 0 0 0 348.6 38.01 0 0 1043.11 0 0 2090.19 0 0 0 0 -697.08 0 0z"/>
  <path class="fil2 str0" d="M9270.21 9987.33l4.74 1374.99 0 0 0 1049.2 0 0 -1393.07 0 0 -356.71 -327.72 0 0 -341.54 0 0 4.79 -1028.86 0 0 0 -697.08 0 0 1711.26 0 0 0z"/>
  <path class="fil2 str0" d="M9270.21 9987.33l347.97 0 0 -348.57 440.9 -2.28 0 0 0 -1024.06 0 0 -1806.29 0 0 0 -717.7 0 2.38 355.64 0 0 21.48 1019.27 0 0 1711.26 0 0 0z"/>
  <path class="fil2 str0" d="M10061.47 6221.09l328.99 0 -0.55 -1329.05 0 0 -527.45 -145.7c-17.16,-9.73 -4.17,-74.72 -4.17,-93.69 0,-43.54 -9.43,-76.74 -42.9,-108.02 -17.24,-16.1 -31.71,-58.23 -48.85,-70.42 -1.9,-15.16 -18.43,-76.52 -29.2,-88.33 -11.39,-12.51 -40.92,-52.59 -47.07,-68.03 -9.72,-4.9 -16.03,-24.54 -13.11,-34.62 -3.79,-31.13 -29.61,-49.33 -30.98,-79.37 -1.28,-27.92 -35.69,-44.01 -43.5,-68.03 -27.2,-83.66 -69.98,-67.54 -137.63,-101.46 -35.37,-17.74 -55.31,-69.07 -100.7,-37.6 -15.15,10.51 -51.93,42.61 -57.79,6.57 -3.91,-24.11 5.38,-51.16 3.57,-76.39 -2.21,-30.94 -28.16,-42.9 -51.84,-56.69 -41.17,-23.99 -44.8,-10.68 -72.09,20.88 -53.72,62.15 -151.25,2.84 -176.37,-55.5 -7.44,-1.89 -5.85,-26.58 -5.03,-32.52l0.66 -24.15 0 0c-24.69,13.8 -50.38,20.54 -77.28,14.9 -112.58,-23.59 -148.69,-138.68 -277.66,-84.75 -20.39,8.53 -39.49,8.13 -57.49,2.46l0 0 0.29 1482.37 367.03 0 0 350.88 359.89 0 0 676.26 0 0 741.23 0 0 0z"/>
  <path class="fil2 str0" d="M10061.47 6565.43l2107.04 0 0 137.19 354.96 5.97 0 -144.41 368.23 0 0 0 0 -345.09 326.52 0 0.02 -395.59 0 0 -434.97 -270.3 -2393.36 -661.16 0 0 0.55 1329.05 -328.99 0 0 0 0 344.34 0 0z"/>
  <path class="fil2 str0" d="M8250.1 6221.09l2.69 1367.26 0 0 -2457.56 0 0 0 0.14 -1372.71 -59.16 0 0 -699.48 0 0 1798.91 0 0 0 0 704.93 714.98 0 0 0z"/>
  <path class="fil2 str0" d="M8252.79 8612.42l-717.7 0 2.38 355.64 0 0 -1742.24 0 0 0 0 -1379.71 0 0 2457.56 0 0 0 0 1024.07 0 0z"/>
  <path class="fil2 str0" d="M8250.1 6221.09l2.69 1367.26 0 0 0 1024.07 0 0 1806.29 0 0 0 0 -699.53 0 0 2.39 -1347.46 0 0 0 -344.34 0 0 -741.23 0 0 0 -1070.14 0 0 0z"/>
  <path class="fil2 str0" d="M7921.26 2099.58c0.3,-4.95 4.1,-8.95 5.36,-13.73 2.38,-9.08 4.26,-15.3 2.38,-25.06 -1.35,-6.97 -6.91,-10.12 -14.3,-8.36 -4.31,1.03 -5.54,6.51 -6.55,10.15 -1.05,3.83 -2.97,5.71 -4.77,8.95 -2.68,4.79 -11.39,7.95 -16.08,10.15 -2.56,1.19 -4.72,2.1 -7.15,3.58 -1.72,1.06 -3.44,3.7 -5.37,4.17 -0.31,1.95 -2.98,3.64 -2.98,6.57 0,5.21 -0.72,8.64 4.17,11.34 6.96,3.83 16.78,-0.6 23.84,-0.6l21.45 -7.16zm-184.71 -66.84c-12.51,3.84 -27.79,7.44 -36.94,-4.78 -7.48,-10 -19.16,-21.48 -32.18,-21.48 -10.14,0 -10.06,8.88 -5.36,15.52 7.34,10.39 20.99,16.21 29.79,25.06 3.47,3.48 5.73,8.22 7.15,12.53 0.71,2.14 0.7,5.19 1.79,7.17 0.78,1.4 2.62,3.91 2.98,5.37 5.2,0.72 13.18,7.02 19.66,4.77 5.2,-1.81 15.11,-12.57 10.73,-18.5l2.38 -25.66zm-323.53 99.66c14.89,3.46 41.6,0 57.79,0 30.67,0 49.25,8.31 43.5,-34.61 -1.31,-9.8 -10.67,-34.68 -3.58,-42.37 8.47,-9.17 29.2,-20.94 29.2,-32.83 -12.7,-10.05 -12.61,-16.64 -19.07,-30.43 -5.69,-12.12 -2.48,-27.04 -18.47,-31.63 -12.54,-3.59 -12.87,8.7 -14.3,17.9 -6.36,40.95 -91.3,22.26 -120.36,51.32 -18.37,18.37 -15.15,31.87 0,48.94 10.73,12.08 36.94,14.38 36.94,35.81l8.35 17.9zm-1676.81 3383.76l1798.91 0 0 0 2.91 -1803.47 0 0c-25.71,-6.97 -60.03,-27.44 -82.77,-27.44l-1.19 -1.19c-2.71,-11.01 -1.19,-40.03 -1.19,-53.71l1.19 -1.2c10.07,-2.49 23.74,-17.72 33.37,-19.1 24.39,-42.75 39.8,-60.84 53.62,-109.8 12.33,-43.71 15.18,-89.43 40.52,-128.91 21.62,-4.28 44.48,-7.16 66.73,-7.16l1.2 -1.2c2.82,-11.38 14.3,-42.68 14.3,-51.32 2.41,-0.8 4.38,-4.97 8.34,-5.97 0.83,-2.51 4.04,-2.59 4.77,-4.77 4.96,0 8.07,-4.78 11.91,-4.78 0.85,-3.43 6.03,-2.56 7.15,-5.96 9.95,-2.5 18.34,-16.86 27.41,-19.1 6.64,-26.93 19.8,-30.08 8.34,-62.07 -9.03,-25.24 -29.79,-44.27 -39.32,-70.42 -17.84,-48.98 -59.89,-86.46 -45.29,-145.62 1.99,-0.49 4.3,-2.13 4.77,-3.58 16.65,-4.12 60.89,-24.68 67.93,-40.58 12.52,-28.29 -14.57,-54.78 -8.35,-79.97 2.2,-0.54 1.85,-0.19 2.39,-2.39 28.87,-4.09 59.47,-9.78 86.99,-16.71 0.54,-2.18 0.2,-1.84 2.38,-2.38 0.37,-1.53 0.82,-2.06 1.19,-3.58 9.18,-2.3 6.56,-34.83 13.11,-37 0,-4.65 9.29,-15.9 11.02,-18.68 35.2,-29.08 65.23,-59.51 65.23,-89.94 25.61,-6.34 29.79,-94.04 29.79,-111 0,-45.71 63.32,-81.35 51.24,-130.1 37.12,0 61.57,-19.59 44.09,-58.49 -21.73,-48.39 -42.57,-34.15 -76.26,-54.9 -48.75,-30.04 17.99,-136.72 -102.49,-93.1 -46.86,16.97 -33.19,-74.21 -61.97,-91.91 -93.52,-57.49 -81.72,-0.46 -133.47,39.39 -29.58,22.79 -53.08,1.55 -84.61,41.77 -19.86,25.32 -95.93,-11.55 -121.55,-21.48 -64.35,-24.93 -47.6,24.98 -78.65,63.26 -15.65,19.31 -114.94,90.71 -139.43,90.71 -9.36,37.92 -45.32,151.82 -112.02,99.07 -93.23,-73.72 -40.55,112.2 -126.32,112.2 -78.01,0 -31.78,-83.54 -56.01,-89.52 -11.76,35.48 -74.68,117.71 -114.4,121.74 -73.05,7.4 -53.62,-75.91 -53.62,-105.03 2.68,-0.67 8.34,-6.29 8.34,-9.55 5.49,-1.09 38.88,-36.65 34.56,-45.36 -8.84,-17.79 -35.13,25.09 -40.52,29.84 -33.8,29.84 -96.66,44.51 -107.25,93.1 -13.61,68.98 -142.5,93.87 -196.63,107.42 -89.83,22.48 -104.67,107.08 -182.33,139.65 -59.13,24.81 -73.14,8.36 -126.32,8.36 -44.09,44.09 -55.26,68.64 -117.98,96.68 -51.51,23.02 -66.11,-1.24 -119.16,37 -57.13,41.19 -115.11,35.93 -174.6,33.76l0 0 0 2514.49 0 0z"/>
  <path class="fil2 str0" d="M7958.79 1925.91c4.08,-17.55 -2.97,-37.94 -2.97,-56.1 0,-12.02 13.3,-16.52 21.45,-22.67 6.59,-4.96 22.42,-19.7 30.38,-19.7 13.81,13.93 19.74,39.92 36.35,53.12 9.88,7.84 19.11,29.34 12.51,41.77 -4.34,8.19 -17.26,17.58 -18.47,26.86 -2.12,16.17 7.67,34.08 -15.49,32.82 -7.57,-0.41 -23.66,-6.24 -29.79,-10.74 -7.43,-5.47 -18.3,-25.42 -25.03,-26.26l-8.94 -19.1zm193.05 266.77c-15.63,-7.27 -8.56,-47.15 -21.45,-47.15 -15.88,0 -23.73,6.1 -41.11,-1.19 -19.93,-8.37 -42.22,-28.28 -57.2,-5.97 -12.46,18.58 -26.87,38.73 -45.28,51.92 -2.58,17.89 26.59,45.84 35.75,63.26 8.96,17.06 33.42,42.99 35.75,61.47 5.52,4.62 4.82,17.81 14.89,19.69 21.25,3.99 131.27,-1.88 138.83,-23.27 7.85,-22.19 -33.94,-84.15 -50.05,-100.26l-10.13 -18.5zm-67.92 417.15c12.48,-13.45 33.96,-50.04 33.96,-67.43 0,-15.58 -16.28,-38.2 -33.37,-38.2 -39.78,0 -61.66,59.34 -73.88,90.12 -9.92,25.02 -30.98,67.47 -19.06,91.31 15.27,2.12 27.55,-4.97 37.53,-16.71 12.94,-15.24 32.27,-26.25 44.09,-41.18l10.73 -17.91zm381.33 -86.53l-2.98 0c-9.36,-37.16 -64.52,-25.7 -83.42,-4.18 -57.15,65.11 -99.81,121.06 -179.34,162.33 -33.39,17.33 -74.2,33.13 -99.5,61.47 -18.84,21.09 -10.42,60.22 -42.9,65.05 -37.64,5.59 -54.44,27.04 -86.4,41.18 -14.34,6.35 -72.09,16.8 -72.09,33.42 0,15.68 35.75,26 35.75,47.14 0,16.28 -33.98,59.24 -8.35,79.97 51.13,41.33 161.16,-154.45 225.23,-130.1 33.47,12.71 184.38,-25.27 161.47,-56.69 -18.24,-25.03 -98.52,-15.18 -76.87,-69.23 15.92,-39.77 56.01,-30.75 88.78,-56.1 60.72,-46.95 135.87,-35.16 200.8,-63.85 53.02,-23.44 0.54,-61.98 -35.75,-79.97l-24.43 -30.44zm353.32 -505.48c-2.58,-37.28 17.16,-57.8 29.2,-88.92 20.37,-52.66 1.15,-102.81 14.9,-156.36 13.12,-51.06 50.84,-127.12 113.2,-127.12 21.58,17.38 78.65,-12.64 78.65,16.71 0,18.18 -4.58,82.01 -18.47,93.1 -5.76,32.07 -32.42,40.63 -28,79.97 2.73,24.39 4.51,55.66 -18.47,71.62 -10.67,7.42 -30.89,18.33 -38.14,27.45 -17.84,22.47 -19.68,46.99 -55.41,49.53 -28.68,2.03 -34.04,6.3 -55.41,25.07l-22.05 8.95zm56.61 378.36c-1.5,0.75 -2.62,1.49 -4.17,1.79 -4.14,8.42 -32.47,19.41 -41.71,23.28 -25.99,10.87 -52.01,16.48 -77.46,29.24 -10,5.02 -19.23,13.89 -29.19,19.7 -4.89,2.84 -32.77,15.18 -32.77,19.69 0.98,0.33 10.63,9.46 12.51,11.34 32,32.18 83.83,13.48 112.61,-11.94 14.47,-12.77 25.84,-27.16 43.49,-37 12.66,-7.07 19.4,-21.45 29.2,-28.05 0,-4.98 6.71,-15.75 2.38,-21.48l-14.89 -6.57zm-638.13 13.73c-21.1,4.54 -81.77,12.6 -68.52,46.55 4.19,10.76 7.33,15.82 17.28,22.68 13.67,9.44 31.09,-10.69 39.92,-19.1 5.89,-5.62 14.07,-7.91 20.85,-11.94 6.48,-3.84 11.04,-8.1 15.49,-13.72 0,-1.63 0.41,-2.61 0.6,-4.18 -1,-1.66 -4.87,-8.73 -5.37,-10.74l-20.25 -9.55zm66.13 -119.36c14.08,-15.17 28.16,-32.5 39.92,-49.53 9.95,-14.42 8.04,-35.81 31.58,-35.81 22.1,0 32.13,5.27 53.63,-5.97 31.87,-16.65 52.89,-48.18 93.54,-51.32 27.78,-2.14 51.11,-7.11 77.46,-15.52 36.31,-11.58 65.74,-42.72 98.31,-11.93 7.51,7.09 27.01,16.95 28,28.05 1.29,14.55 -21.97,17.2 -23.23,26.25 -1.67,1.19 -2.28,2.5 -4.17,3.59 -0.58,4.05 -13.97,19.07 -16.69,26.25 -5.2,13.68 -0.82,44.23 -14.89,50.13 -11.33,4.76 -47.69,-6.97 -50.65,4.78 -2.43,0.61 -4.76,13.65 -4.76,16.71 -9.65,7.99 2.98,33.5 2.98,42.37 1.4,1 4.5,6.47 4.76,8.36 18.68,13.29 3.33,31.63 -14.89,31.63 -12.18,-21.22 -21.3,-73.83 -61.37,-65.05 -25.99,5.7 -27.52,35.7 -66.14,32.22 -19.09,-1.72 -25.76,-38.37 -48.86,-17.9 -9.14,8.11 -7.34,21.3 -14.3,31.03 -11.73,16.37 -50.69,24.74 -69.11,17.91 -26.57,-9.87 -26.65,-35.56 -44.69,-45.96l3.57 -20.29zm8.34 -545.46c-18.8,5.74 -30.5,35.51 -50.64,39.98 -14.47,3.2 -30.41,0 -44.69,0 -22.66,0 -21.33,31.9 -22.64,48.94 -0.73,9.44 0.3,19.94 2.98,28.64 3.05,9.87 11.36,19.75 13.7,29.25 4.32,3.06 6.26,8.73 12.52,8.35 14.82,-0.9 21.27,-51 22.64,-63.26 7.35,-6.32 10.14,-23.9 19.06,-32.82 5.38,-5.38 14.27,-15.77 22.05,-16.71 10.04,-12.13 30.08,-17.56 34.56,-35.21l-9.54 -7.16zm33.97 60.27c-3.85,-0.89 -8.79,-0.96 -12.52,0 -3.81,0.99 -7.31,3.97 -10.12,4.78 -0.95,3.73 -4.83,9.9 -7.15,13.13 -3.13,4.33 -7.48,7.07 -10.73,10.74 -4.49,5.09 5.49,10.04 7.75,14.32 2.15,4.05 5.04,7.36 7.74,10.74 1.9,2.36 6.64,4.93 7.75,7.16 5.07,0.73 8.13,2.72 12.51,-1.19 4.69,-4.17 6.23,-13.88 6.55,-19.69l0.6 -10.75c0.16,-2.92 0.14,-12.13 1.79,-14.32l-4.17 -14.92zm237.14 61.47c-3.49,0 -6.08,-1.36 -8.94,-2.98 -0.52,-2.1 -2.5,-1.76 -2.98,-4.18 -6.51,-4.66 -4.82,-11.86 -7.15,-17.9 -3.4,-8.79 10.89,-19.08 -0.6,-31.63 -10.28,-11.21 -27.49,-2.61 -31.57,10.74 -3.88,12.67 -2.63,22.43 -1.2,35.21 2.48,22.01 13.41,44.32 17.88,66.84 3.22,16.19 5.96,33.08 5.96,50.13 0,7.93 -6.72,22.68 5.95,22.68 14.51,0 35.07,-32.17 39.93,-44.76 3.45,-8.92 14.66,-42.06 7.74,-50.73 0,-5.13 -9.26,-16.64 -13.11,-19.69l-2.38 0 -9.53 -13.73zm-140.62 76.39c-0.96,-0.32 -1.66,-0.48 -2.38,-1.19 -2.32,0 -5.2,-1.33 -7.75,-1.79 -7.37,-1.34 -17.57,-2.11 -25.02,-0.6 -3.7,0.75 -7.2,1.38 -10.73,2.39 -2.84,0.82 -6.77,2.64 -9.53,2.98 -5.07,7.08 -11.32,9.32 -10.73,19.69 0.33,5.78 6.22,11.87 10.13,16.12 6.29,6.81 7.07,19.47 8.94,28.05 1.77,8.09 8.99,10.39 17.28,8.95 12.38,-2.14 29.99,-10.29 32.77,-23.87 1.19,-5.79 2.05,-11.32 2.38,-17.31 0.24,-4.54 1.2,-9.13 1.2,-13.73 0,-3.53 -1.2,-6.27 -1.2,-9.54l-5.36 -10.15zm-95.93 105.63c-20.69,0 -40.32,6.11 -50.64,24.47 -7.25,12.92 -15.88,20.29 -26.81,30.44 -7.8,7.23 -9.95,11.18 -13.11,20.29 -1.56,4.48 -4.7,11 -8.94,14.32 -5.72,4.46 -20.93,10.49 -15.49,20.29 2.58,4.63 8.53,28.56 11.32,29.24 1.9,5.9 26.83,-17.26 30.39,-19.69l69.11 -47.15c14.87,-10.15 17.88,-30.93 17.88,-48.34l-13.71 -23.87zm-128.1 -102.05c-8.17,0 -15.61,-2.54 -23.24,-5.37 -5.83,-2.15 -16.26,-5.88 -20.85,0.6 -5.24,1.27 -9.58,20.35 -11.32,25.06 -2.55,6.03 -3.52,9.75 -6.56,14.32 -1.22,1.82 -3.49,5.39 -4.17,7.17 -1.04,2.74 -2.74,4.41 -3.57,7.16 -0.5,1.63 -1.58,2.71 -2.39,4.18 -2.06,3.77 -2.38,9.24 -2.38,13.72 -0.89,0.6 -0.59,1.12 -0.59,2.39 -12.73,13.24 -14.38,20.52 1.19,29.24 23.74,13.28 46.17,-9.49 61.37,-23.87 6.62,-6.25 20.23,-15.9 28.6,-19.1 4.49,-1.71 11.95,-5.01 15.49,-8.35 3.56,-3.34 7.77,-8.82 11.32,-11.34 0,-11.58 -12.77,-19.19 -18.47,-29.24l-24.43 -6.57zm-679.95 1765.89c8.57,2.32 16.19,3.14 22.1,1.21 85.32,-27.94 162.96,-100.8 249.06,-134.88 44.09,-17.44 84.87,-48.98 126.32,-72.81 35.73,-20.53 73.86,-39.93 106.06,-65.64 18.36,-5.36 57.17,-29.21 37.58,-53.12 -11,-13.44 -40.98,3.63 -55.41,4.18 -66.96,2.59 15.26,-29.54 33.37,-33.42 30.01,-6.42 76.35,3.5 104.86,10.74 -12.86,-9.81 -31.42,-29.54 -41.11,-42.97 -20.2,-28.03 -57.9,-45.6 -79.84,-75.19 -19.33,-26.09 -48.28,-31.6 -58.99,-63.86 -20.35,-61.34 -64.35,-65.72 -120.36,-81.16 -28.84,-7.94 27.18,-19.23 41.12,-14.92 64.1,19.81 120.55,115 168.02,162.92l219.86 222.01 206.12 168.89c29.21,23.93 60.64,55.71 96.24,66.91l0 0 0.29 1482.37 367.03 0 0 350.88 359.89 0 0 676.26 0 0 -1070.14 0 0 0 -714.98 0 0 -704.93 0 0 2.91 -1803.47 0 0z"/>
  <path class="fil2 str0" d="M5736.21 5516.16l0 699.48 59.16 0 -0.14 1372.71 0 0 -1414.98 0 0 0 0 -1372.71 -44.87 -4.4 0 -695.08 0 0 1400.83 0 0 0z"/>
  <path class="fil2 str0" d="M4335.38 5516.16l-674.29 -0.26 0 0 0 -2136.8c10.86,5.38 17.43,16.77 28,22.68 12.89,7.22 22.64,17.1 34.56,24.46 10.27,6.33 20.73,12.49 32.18,16.12 30.47,9.66 80,28.1 107.24,2.98 9.3,-8.58 28.6,-25.68 28.6,-39.39 1.4,-1.38 1.79,-2.82 1.79,-4.77 2.64,-2.66 0.98,-0.94 2.98,-7.76l6.71 -23.25 0 0c4.96,-1.1 12.02,-6.73 21.89,-18.53 16.79,-20.06 32.76,-47.5 40.52,-72.8 18.46,-60.11 -50.68,5.64 -32.77,-77.59 4.33,-20.17 22.7,2.52 29.79,7.17 20.61,13.55 10.69,-40.61 56.01,-16.72 29.29,15.45 74.22,-90.33 99.5,-113.39 87.39,-79.75 126.1,-0.62 179.94,60.28 22.16,25.08 52.16,45.51 69.71,74 9.65,15.68 43.33,70.75 54.22,25.66 22.58,0 8.55,55.41 17.28,61.47 9.56,6.62 82.57,-4.77 100.1,-4.77 -6.98,-27.72 -119.17,-57.01 -119.17,-102.65 29.3,0 69.25,54.62 96.53,70.42 18.78,10.87 35.3,32.26 56.6,38.2 26.82,7.47 67.26,-3.29 86.4,4.77 57.89,0 143.9,-25.19 193.64,-54.31 10.46,-0.68 18.66,-2.34 27.41,5.38 76.78,20.31 141.31,24.9 216.28,-12.54l229.4 -114.58c100.28,-12.15 165.39,-37.15 248.32,-92.5 55.3,-36.9 108.98,-37.39 161.46,-35.47l0 0 0 2514.49 0 0 -1400.83 0 0 0z"/>
  <path class="fil2 str0" d="M4380.25 7588.35l-345.11 0 0 0 0 1704.35 0 0 1395.61 0 0 0 364.48 0.03 0 -324.67 0 0 0 -1379.71 0 0 -1414.98 0 0 0z"/>
  <path class="fil2 str0" d="M4035.14 9292.7l1395.61 0 0 0 0 348.6 38.01 0 0 1043.11 0 0 1.15 678 0 0 -1365.64 0 0 0 0 -687.44 0 0 0 -1040.92 -69.13 0 0 -341.35 0 0z"/>
  <path class="fil2 str0" d="M5469.91 11362.41l-1.15 -678 0 0 2090.19 0 0 0 -4.79 1028.86 0 0 -695.93 0 0 0 -1041.45 0 0 0 -349.23 0 0 0 0 -350.86 2.36 0z"/>
  <path class="fil2 str0" d="M6858.23 11713.27l695.93 0 0 0 0 341.54 327.72 0 0 356.71 1393.07 0 0 0 -4.77 697.88 0 0 0 353.66 0 0 -1698.13 0c-8.63,2.76 -18.63,9.92 -28.6,10.74 -4.32,6.5 -31.02,19.93 -40.52,25.07 -18.41,9.98 -31.07,25.99 -47.67,38.19 -7.89,5.81 -19.72,15.86 -28.6,19.1 -15.81,5.76 -27.96,17.2 -32.17,34.53l0 217.97 0 0 -509.38 0 0 0 0 -696.41 -26.88 0 0 -1398.98 0 0z"/>
  <path class="fil2 str0" d="M9270.18 13463.06l19.11 1718.79 0 0 -1709.88 0 0 0 0 -1373.19 -184.92 0 0 0 0 -217.97c4.21,-17.33 16.36,-28.77 32.17,-34.53 8.88,-3.24 20.71,-13.29 28.6,-19.1 16.6,-12.2 29.26,-28.21 47.67,-38.19 9.5,-5.14 36.2,-18.57 40.52,-25.07 9.97,-0.82 19.97,-7.98 28.6,-10.74l1698.13 0 0 0z"/>
  <path class="fil2 str0" d="M9289.29 15858.6l-1014.17 0 0 512.03 0 0 0 1007.81 0 0c3.08,-0.62 19.97,-1.98 22.66,-5.21 38.43,0 84.65,-32.33 116.78,-50.13 52.58,-29.14 100.83,-78.69 166.84,-81.17l95.33 -3.58c27.4,-1.03 51.78,8.36 77.46,8.36 11.9,14.3 87.69,33.42 109.64,33.42 8.07,9.73 72.89,6.06 88.15,6.06l0 0c59.81,-11.99 114.54,-38.47 176.4,-51.42 29.9,-6.25 67.7,-17.9 97.72,-17.9 24.42,0 48.78,7.16 69.11,7.16 16.65,23.27 60.52,40.3 88.19,38.2 20.35,-1.55 46.28,2.49 63.16,13.13 12.41,7.81 26.98,33.5 39.32,34.61 20.94,37.74 93.02,71.56 134.66,87.13l0 0 2.55 -1538.5 -333.8 0 0 0z"/>
  <path class="filSel str0" d="M15768.51 15907.74l0 684.89 -68.29 0 -0.7 664.82 0 0 -1019.04 0 0 0 -0.07 -631.4 40.59 -50.11 0 -668.2 0 0 701.87 0 0 0 345.64 0 0 0z"/>
  <path class="fil2 str0" d="M15419.3 14512.22l327.26 0 0 0 897.03 0.13 0 0c-2.65,39.56 -2.37,82.2 -15.98,106.1 -22.12,44.32 -15.12,81.91 2.38,125.32 23.02,57.13 -1.94,128.53 13.11,187.39 13.74,53.71 50.68,105.6 61.97,150.39 4.19,1.05 19.06,18.64 19.06,22.68 5.25,1.75 -2.61,9.92 -5.95,10.74 -0.78,3.11 -4.01,4.06 -4.77,7.17 -7.31,1.81 -6.25,37.86 -7.15,45.35 -3.92,32.27 -25.4,74.59 -17.88,107.42 31.23,136.4 -24.75,216.08 -92.95,338.98 -43.48,90.3 -110.69,196.63 -132.26,291.64l0 0 -694.66 2.21 0 0 -345.64 0 0 0 -3.57 -1395.52 0 0z"/>
  <path class="fil2 str0" d="M14725.76 14322.46l693.54 0 0 189.76 0 0 3.57 1395.52 0 0 -701.87 0 0 0 0 -366.66 -1364.6 0 0 0 -2.33 -1029.9 0 0 1371.58 0 0.11 -188.72 0 0z"/>
  <path class="filSel str0" d="M13356.4 15541.08l1364.6 0 0 366.66 0 0 0 668.2 -40.59 50.11 0.07 631.4 0 0 -349.02 0 0 0 -1324.16 0 0 0 0 -322.21 0 0 -2.34 -1394.16 0 0 351.44 0 0 0z"/>
  <path class="filSel str0" d="M15699.52 17257.45l458.44 -0.41 0 0c3.19,17.69 0.05,38.42 1.32,54.12 3.47,42.72 40.52,69.5 40.52,118.17 0,41.36 -39.49,109.2 -47.67,158.74 0.35,-1.61 0.91,-2.21 0,-3.58 -14.96,60.6 32.81,70.83 64.35,109.81 21.37,26.43 16.23,76.52 30.98,106.23 21.42,43.11 -76.27,123.13 -79.84,174.26 -5.35,76.75 20.05,131.15 77.46,177.85 87.54,71.23 25.87,134.92 47.67,226.78 8.61,36.27 22.41,58.34 9.53,91.9 -10.35,26.99 24.39,93.76 8.34,109.81 7.46,19.94 16.38,48.65 26.75,79.27l0 0 -637.85 -0.4 0 0 0 -1402.55 0 0z"/>
  <path class="filSel str0" d="M14680.48 17257.45l1019.04 0 0 0 0 1402.55 0 0 -696.98 -0.08 0 0 -671.08 0 0 0 0 -1402.47 0 0 349.02 0 0 0z"/>
  <path class="filSel str0" d="M15768.51 15907.74l0 684.89 -68.29 0 -0.7 664.82 0 0 458.44 -0.41 0 0c-2.18,-12.09 -7.35,-22.77 -18.94,-29.43 -3.02,-21.44 -25.78,-37.01 -27.41,-64.45 -1.75,-29.38 -1.22,-57.14 4.77,-85.94 12.98,-62.45 44.85,-105.95 63.16,-162.33 34.28,-105.6 12.31,-216.06 54.81,-321.07l100.1 -165.91c22.45,-37.22 82.23,-115.88 82.23,-159.94 56.6,-66.12 27.68,-263.86 44.09,-350.91 0.72,-3.81 1.53,-7.67 2.4,-11.53l0 0 -694.66 2.21 0 0z"/>
  <path class="filSel str0" d="M15002.54 19598.2l-0.25 440.64 0 0 1410.03 -6.71 0 0c-10.21,-42.28 -8.18,-78.11 -15.9,-123.74 -8.66,-51.24 -2.38,-116.73 -2.38,-168.29 0,-16 18.79,-64.87 1.19,-69.23 -1.24,-2.08 -0.91,-2.6 -2.38,-3.58 0,-26.36 -5.66,-71.99 -10.73,-99.07 0,-65.25 12.2,-145.53 38.96,-209.51l0 0 -1072.09 -0.55 0 240.04 -346.45 0 0 0z"/>
  <path class="filSel str0" d="M15699.52 18660l637.85 0.4 0 0c19.81,58.45 44.99,123.92 75.74,148.71 24.93,20.11 61.44,65.12 89.37,77.58 9.46,4.21 72.54,59.28 48.86,63.26 -1.31,5.29 -41.24,27.88 -48.86,46.55 -22.79,55.78 -0.34,81.72 3.58,130.1 3.85,47.4 -35.45,145.72 -61.97,187.39 -8.62,13.54 -16.28,28.61 -23.01,44.72l0 0 -1072.09 -0.55 0 240.04 -346.45 0 0 0 0 -938.28 0 0 696.98 0.08 0 0z"/>
  <path class="fil2 str0" d="M13659.15 18661.15l-0.56 1384.09 0 0 -1464.14 6.98 -208.47 -3.27 0 0 -1.12 -1387.8 0 0 1002.2 0 0 0 672.09 0 0 0z"/>
  <path class="fil2 str0" d="M15002.54 18659.92l0 938.28 0 0 -0.25 440.64 0 0 -1343.7 6.4 0 0 0.56 -1384.09 0 0 672.31 -1.23 0 0 671.08 0 0 0z"/>
  <path class="filSel str0" d="M13007.3 17257.45l1324.16 0 0 0 0 1402.47 0 0 -672.31 1.23 0 0 -672.09 0 0 0 20.24 -1403.7 0 0z"/>
  <path class="fil2 str0" d="M10645.4 18791.24l0.58 1236.74 0 0 -1694.82 -26.53 0 0 0.82 -1210.21 0 0 1693.42 0 0 0z"/>
  <path class="fil2 str0" d="M9620.54 17397.1c72.95,23.62 195.66,-47.7 259.79,10.74 71.23,64.93 122.52,44.57 178.75,-26.26 37.44,-47.18 88.98,-97.77 150.15,-106.22 36.53,-5.04 77.59,7.34 117.98,5.96 75.11,-2.57 82.98,43.44 166.83,-2.38 13.68,-7.48 86.59,-9.55 103.68,-9.55l19.06 -10.75c4.29,0 19.7,-21.27 26.81,-25.66l0 0 1.81 1376.18 0 0 0 182.08 0 0 -1693.42 0 0 0 0 -1505.05 0 0c59.81,-11.99 114.54,-38.47 176.4,-51.42 29.9,-6.25 67.7,-17.9 97.72,-17.9 24.42,0 48.78,7.16 69.11,7.16 16.65,23.27 60.52,40.3 88.19,38.2 20.35,-1.55 46.28,2.49 63.16,13.13 12.41,7.81 26.98,33.5 39.32,34.61 20.94,37.74 93.02,71.56 134.66,87.13l0 0z"/>
  <path class="fil2 str0" d="M10645.4 18791.24l0 -182.08 0 0 1339.46 0 0 51.99 0 0 1.12 1387.8 0 0 -1340 -20.97 0 0 -0.58 -1236.74 0 0z"/>
  <rect class="fil7 strW" x="999.99" y="1000" width="18995.19" height="20395"/>
 </g>
</svg>
